<?xml version="1.0" encoding="utf-8"?><svg xmlns="http://www.w3.org/2000/svg" xmlns:xlink="http://www.w3.org/1999/xlink"><symbol viewBox="0 0 28 15" id="arrow" xmlns="http://www.w3.org/2000/svg"><path d="M.367 6.644v-.001L6.9.353a1.28 1.28 0 0 1 1.768.003c.487.474.485 1.24-.004 1.711L4.278 6.29H26.75c.69 0 1.25.542 1.25 1.21 0 .668-.56 1.21-1.25 1.21H4.278l4.385 4.223a1.18 1.18 0 0 1 .004 1.71 1.28 1.28 0 0 1-1.768.005L.368 8.358l-.001-.002a1.183 1.183 0 0 1 0-1.712z"/></symbol><symbol viewBox="0 0 34 34" id="basket" xmlns="http://www.w3.org/2000/svg"><path d="M31.418 12.055h-1.21L24.792 1.84a.996.996 0 0 0-1.76.934l4.921 9.282H6.191l4.922-9.282a.996.996 0 1 0-1.76-.934L3.936 12.055H2.582A2.585 2.585 0 0 0 0 14.637a2.585 2.585 0 0 0 2.582 2.582h.072c.002.014.003.029.006.043l2.077 11.649a4.58 4.58 0 0 0 4.514 3.78h15.642a4.58 4.58 0 0 0 4.514-3.78l2.077-11.649.007-.044A2.584 2.584 0 0 0 34 14.638a2.585 2.585 0 0 0-2.582-2.583zm-3.972 16.506a2.59 2.59 0 0 1-2.553 2.137H9.251A2.59 2.59 0 0 1 6.7 28.561L4.676 17.219h24.792l-2.022 11.342zm3.972-13.334H2.582a.59.59 0 0 1 0-1.18h28.836a.59.59 0 0 1 0 1.18z"/><path d="M16.01 19.597a.946.946 0 0 1 1.893 0v8.722a.946.946 0 0 1-1.892 0v-8.722zm-3.971-.157l1.469 8.722a.946.946 0 0 1-.776 1.09.946.946 0 0 1-1.09-.776l-1.47-8.722a.946.946 0 0 1 .776-1.09.947.947 0 0 1 1.09.776zm8.296 8.722l-.05-.008.05.008zm0 0a.946.946 0 0 0 1.866.315l1.469-8.723a.946.946 0 1 0-1.866-.314l-1.47 8.722z"/></symbol><symbol viewBox="0 0 52 47" id="ch" xmlns="http://www.w3.org/2000/svg"><path d="M50.469 36.656h-.99a2.529 2.529 0 0 0-2.385-3.375h-.844v-6.75a7.616 7.616 0 0 0-3.663-6.497 11.564 11.564 0 0 0 1.11-3.496c.234-1.635.058-3.16-.498-4.47l4.03-4.031a2.531 2.531 0 0 0 2.883-4.075l-2.387-2.387a2.532 2.532 0 0 0-4.074 2.882L39.619 8.49c-1.31-.556-2.834-.733-4.47-.5-2.387.342-4.757 1.527-6.725 3.356l-.268-.23a7.563 7.563 0 0 0-6.326-1.701l-9.947 1.842A12.657 12.657 0 0 0 1.531 23.7v1.987a12.573 12.573 0 0 0 4.409 9.599 5.04 5.04 0 0 0-.19 1.37H1.531a.844.844 0 0 0-.843.844v1.687a2.535 2.535 0 0 0 1.687 2.387v.988a4.223 4.223 0 0 0 4.219 4.22h38.812a4.223 4.223 0 0 0 4.219-4.22v-.988a2.535 2.535 0 0 0 1.688-2.387V37.5a.844.844 0 0 0-.844-.844zm-5.13-31.5a.845.845 0 0 0 0-1.194.844.844 0 1 1 1.193-1.193l2.386 2.386a.843.843 0 1 1-1.193 1.193.845.845 0 0 0-1.193 0l-4.214 4.215a6.704 6.704 0 0 0-1.193-1.194l4.214-4.214zm-8.826 4.416c1.574 0 3.007.503 4.053 1.549 2.632 2.632 1.829 7.717-1.79 11.336-3.619 3.619-8.704 4.421-11.336 1.79-1.242-1.242-1.76-3.081-1.46-5.178.311-2.187 1.466-4.374 3.25-6.158 2.181-2.18 4.895-3.34 7.283-3.34zM3.219 25.687V23.7a10.97 10.97 0 0 1 8.972-10.784l9.946-1.843a5.882 5.882 0 0 1 4.92 1.324l.198.17c-1.596 1.871-2.632 4.06-2.946 6.263-.377 2.636.311 4.984 1.938 6.61 1.336 1.336 3.158 2.04 5.227 2.04a9.844 9.844 0 0 0 1.383-.101c2.546-.364 5.072-1.688 7.112-3.729a14.223 14.223 0 0 0 1.772-2.156 5.925 5.925 0 0 1 2.822 5.037v7.594a.844.844 0 0 0 .843.844h1.688a.844.844 0 0 1 0 1.687h-6.75a4.224 4.224 0 0 0-4.566-4.204 4.217 4.217 0 0 0-7.744 0h-.005l-.431-1.58a4.225 4.225 0 0 0-4.667-3.068l-6.59.942c1.569-1.936 3.753-5.163 3.753-8.121a.844.844 0 0 0-.983-.832c-.202.033-4.48.786-6.702 4.237l-.895-1.342a.844.844 0 0 0-1.17-.234c-.118.08-2.906 2-2.906 7.452v.844c-.001.651.082 1.3.247 1.93-.374.294-.704.64-.982 1.026a10.892 10.892 0 0 1-3.484-8.019zm7.594 5.907c-.539 0-1.074.086-1.585.255a5.937 5.937 0 0 1-.103-1.1v-.843c0-2.97.911-4.635 1.55-5.436l1.123 1.685a.844.844 0 0 0 1.485-.154c1.028-2.57 3.536-3.756 4.998-4.245-.754 3.574-4.647 7.51-4.69 7.553a.843.843 0 0 0 .716 1.432l8.862-1.266a2.535 2.535 0 0 1 2.8 1.84l.368 1.345a4.226 4.226 0 0 0-2.868 3.996h-7.594a5.068 5.068 0 0 0-5.063-5.062zm14.343 5.062a2.534 2.534 0 0 1 3.224-2.435.843.843 0 0 0 1.053-.634 2.531 2.531 0 0 1 4.947 0 .844.844 0 0 0 1.052.634 2.533 2.533 0 0 1 3.224 2.435h-13.5zm-14.343-3.375a3.379 3.379 0 0 1 3.374 3.375h-6.75a3.379 3.379 0 0 1 3.375-3.375zm34.593 11.813H6.594a2.534 2.534 0 0 1-2.532-2.532v-.843h43.876v.843a2.534 2.534 0 0 1-2.532 2.532zm4.219-5.907a.845.845 0 0 1-.844.844H3.22a.844.844 0 0 1-.844-.844v-.843h47.25v.843z"/></symbol><symbol viewBox="0 0 52 38" id="faster" xmlns="http://www.w3.org/2000/svg"><path d="M50.469.438H35.28a.844.844 0 0 0-.843.843v12.892l-4.356 1.452h-3.238a4.237 4.237 0 0 0-3.375 1.688l-1.519 2.024a.844.844 0 0 0 .078 1.103l3.685 3.685-2.65 3.313H19.01a17.2 17.2 0 0 1-.713-4.417c-.118-3.832.994-7.281 3.306-10.253h-.001a.838.838 0 0 0 .178-.518V8.031a.843.843 0 0 0-.843-.844h-2.532V5.5h2.532a.844.844 0 0 0 .843-.844V1.281a.843.843 0 0 0-.843-.843H19.25a2.534 2.534 0 0 0-2.531 2.53v4.304a4.225 4.225 0 0 0-3.375 4.134v.844a.84.84 0 0 0 .247.597c-2.455 1.223-5.548 3.383-7.519 7.018-2.835.216-5.385 2.154-5.385 4.198a.844.844 0 0 0 .844.843h1.09A7.594 7.594 0 1 0 15.478 32.4c.122.066.26.1.398.101H34.87a7.593 7.593 0 1 0 9.31-9.811l1.475-1.129 2.709 1.547a.844.844 0 1 0 .837-1.465l-2.742-1.566 1.272-4.451h2.739a.844.844 0 0 0 .843-.844v-13.5a.844.844 0 0 0-.843-.843zM36.125 8.874h1.688v5.063h-1.688V8.875zm3.375 5.063V8.875h6.75v5.063H39.5zm-3.375-6.75V4.654c.73.55 1.618.847 2.531.846h8.438c.913 0 1.802-.296 2.531-.846v2.534h-13.5zm10.969-3.375h-8.438a2.535 2.535 0 0 1-2.386-1.688h13.21a2.536 2.536 0 0 1-2.386 1.688zm-20.25 13.5h3.375c.09 0 .18-.015.267-.044l4.932-1.644h3.92L30.9 19h-6.587l.506-.675a2.54 2.54 0 0 1 2.025-1.012zm-6.75-5.907h-1.688v-2.53h1.688v2.531zM18.406 2.97a.845.845 0 0 1 .844-.844h.844v1.688h-1.688V2.97zM16.72 9.02v2.386h-1.69a2.536 2.536 0 0 1 1.69-2.386zM6.216 21.547l1.414 1.672H2.715c.618-.807 2.001-1.56 3.5-1.672zM8.28 35.875a5.907 5.907 0 0 1-3.044-10.969h3.821l1.418 1.675-1.104 1.104a2.532 2.532 0 1 0 1.193 1.193l1.004-1.004 2.547 3.01a5.877 5.877 0 0 1-5.835 4.991zm.844-5.906a.844.844 0 1 1-1.687 0 .844.844 0 0 1 1.687 0zm21.652.843h-14.51L7.604 20.578c3.072-5.546 9.278-7.284 10.059-7.483h1.648c-2.358 3.698-2.788 7.44-2.698 10.048.11 3.17.972 5.36 1.009 5.453a.844.844 0 0 0 .783.53h5.063a.843.843 0 0 0 .659-.316l3.375-4.22a.844.844 0 0 0-.063-1.123l-2.778-2.779h6.4c.108 0 .214-.02.314-.06l11.499-4.6v.442a2.535 2.535 0 0 0 2.144 2.502l-.348 1.216-13.894 10.625zm4.985-1.687h6.27a.844.844 0 0 1 0 1.688h-8.477l2.207-1.688zm2.206-1.688l1.341-1.025.513 1.026h-1.854zm9.97 2.532A5.907 5.907 0 0 1 36.693 32.5h5.338a2.531 2.531 0 1 0 0-5.063h-.322l-1.035-2.069 1.694-1.295a5.924 5.924 0 0 1 5.57 5.896zm-2.445-12.657h-.087a.845.845 0 0 1-.843-.843v-.844h1.412l-.482 1.688zm2.444-3.375V8.875h1.688v5.063h-1.688z"/></symbol><symbol viewBox="0 0 22 21" id="garnir" xmlns="http://www.w3.org/2000/svg"><path d="M7.768 18.453c.722 0 1.307-.569 1.307-1.271S8.49 15.91 7.768 15.91s-1.307.57-1.307 1.272c0 .702.585 1.271 1.307 1.271zm4.792-3.814c0 .702-.585 1.271-1.307 1.271s-1.307-.57-1.307-1.271c0-.703.585-1.272 1.307-1.272s1.307.57 1.307 1.272zm1.307-1.272c.722 0 1.307-.57 1.307-1.272 0-.702-.585-1.271-1.307-1.271s-1.307.57-1.307 1.271c0 .703.585 1.272 1.307 1.272zm3.05-5.087a.86.86 0 0 1-.871.848.86.86 0 0 1-.871-.847.86.86 0 0 1 .87-.848.86.86 0 0 1 .872.848zm0-2.542a.86.86 0 0 0 .872-.848.86.86 0 0 0-.872-.848.86.86 0 0 0-.871.848c0 .468.39.848.871.848z"/><path fill-rule="evenodd" clip-rule="evenodd" d="M14.439 2.502C16.342.89 18.336.426 20.918.655l.264 1.623c-.466.194-.77.542-1.012 1.216-.248.69-.386 1.592-.57 2.795l-.024.156c-.384 2.514-.947 5.924-3.204 9.877-.657 1.15-1.85 2.094-3.202 2.815-1.367.729-2.979 1.273-4.58 1.579-1.599.305-3.236.383-4.649.142-1.396-.238-2.716-.817-3.447-1.955l-.312-.485.346-.463c1.815-2.429 2.987-3.237 4.197-4.022l.118-.076c1.058-.685 2.155-1.395 3.944-3.512 2.154-3.766 3.843-6.31 5.652-7.843zm1.145 1.279c-1.558 1.32-3.127 3.628-5.312 7.455l-.038.066-.049.059c-1.981 2.355-3.242 3.172-4.398 3.92l-.096.063c-.986.64-1.915 1.26-3.347 3.078.416.352 1.046.62 1.898.766l.059.01a.844.844 0 0 1-.455-.745.86.86 0 0 1 .872-.847.86.86 0 0 1 .871.847.853.853 0 0 1-.651.82c1 .081 2.145.003 3.315-.22 1.448-.278 2.887-.767 4.08-1.403 1.207-.643 2.083-1.394 2.515-2.151 2.1-3.677 2.627-6.837 3.005-9.304l.036-.24c.17-1.118.331-2.172.636-3.02a5.11 5.11 0 0 1 .25-.585c-1.212.147-2.206.595-3.191 1.43z"/></symbol><symbol viewBox="0 0 22 21" id="heart" xmlns="http://www.w3.org/2000/svg"><path d="M5.977.296C2.78.296.182 3.156.182 6.599c0 1.2.502 2.242.966 2.995.463.752.942 1.234.942 1.234l8.354 9.114.555.604.556-.604 8.355-9.114S21.818 9 21.818 6.599c0-3.442-2.598-6.303-5.795-6.303-2.653 0-4.362 1.736-5.023 2.47-.66-.734-2.37-2.47-5.023-2.47zm0 1.68c2.308 0 4.444 2.443 4.444 2.443l.579.71.58-.71s2.135-2.442 4.443-2.442c2.35 0 4.25 2.098 4.25 4.622 0 1.299-1.45 3.047-1.45 3.047L11 18.156l-7.824-8.51s-.375-.392-.749-.998c-.373-.606-.7-1.399-.7-2.049 0-2.524 1.9-4.622 4.25-4.622z"/></symbol><symbol viewBox="0 0 28 27" id="hleb" xmlns="http://www.w3.org/2000/svg"><path d="M3.802 3.697c-1.424 1.37-1.555 3.67-.625 6.3.93 2.633 2.926 5.61 5.78 8.353 4.047 3.89 8.589 6.123 11.9 6.123 1.358 0 2.513-.375 3.34-1.17l-.031-.032.031.032c1.425-1.37 1.555-3.67.626-6.3-.93-2.633-2.926-5.61-5.78-8.352-2.853-2.744-5.95-4.662-8.69-5.555-2.735-.893-5.126-.767-6.55.601zM4.87 4.73c.538-.519 1.323-.766 2.282-.766 1.413 0 3.192.539 5.083 1.524 1.89.985 3.89 2.415 5.741 4.195 2.48 2.382 4.307 5.019 5.243 7.318.469 1.15.713 2.213.707 3.117-.007.903-.264 1.644-.795 2.155-.532.51-1.303.758-2.244.765-.941.006-2.048-.23-3.245-.68-2.393-.9-5.138-2.655-7.617-5.038-2.48-2.383-4.308-5.02-5.244-7.32-.468-1.15-.713-2.212-.706-3.116.006-.903.264-1.643.795-2.154z"/><path d="M16.763 10.865a.667.667 0 0 0-.654-.64c-1.35-.054-2.77.54-3.854 1.597-1.082 1.06-1.678 2.433-1.634 3.768.011.35.298.63.656.64l.14.002c1.322 0 2.667-.578 3.713-1.6 1.082-1.058 1.678-2.431 1.633-3.767zm-2.593 2.831c-.613.6-1.374 1.005-2.134 1.152.15-.743.565-1.488 1.177-2.088.612-.6 1.376-1.005 2.136-1.152-.15.744-.565 1.488-1.179 2.088zm7.51 1.54c-.012-.35-.328-.63-.72-.64-1.482-.052-3.049.539-4.24 1.597-1.19 1.06-1.845 2.433-1.796 3.768.012.35.328.63.721.64.051.001.102.003.154.003 1.454 0 2.933-.58 4.083-1.602 1.19-1.058 1.846-2.43 1.798-3.766zm-2.853 2.831a4.863 4.863 0 0 1-2.347 1.152c.165-.742.62-1.488 1.294-2.088a4.862 4.862 0 0 1 2.35-1.152c-.166.744-.622 1.488-1.297 2.088zM12.461 7.04a.667.667 0 0 0-.654-.64c-1.336-.058-2.77.54-3.854 1.597-1.084 1.058-1.678 2.432-1.634 3.767.011.35.298.629.656.64l.138.003c1.322 0 2.667-.578 3.713-1.6 1.084-1.058 1.68-2.431 1.635-3.767zM9.868 9.87c-.613.599-1.374 1.004-2.134 1.151.15-.743.564-1.488 1.177-2.088.612-.6 1.375-1.005 2.136-1.152-.15.744-.565 1.488-1.179 2.088z"/></symbol><symbol viewBox="0 0 33 32" id="ic1" xmlns="http://www.w3.org/2000/svg"><path fill-rule="evenodd" clip-rule="evenodd" d="M27.404 1.933L25.426 0l-7.155 6.99-.102.199c-.324.635-.631 1.641-.601 2.765.02.795.213 1.671.703 2.503l-1.648 1.61L2.417.187 1.47 1.576C.91 2.395.253 3.755.057 5.271c-.2 1.547.076 3.385 1.588 4.862l9.502 9.284-10.9 10.65L2.224 32l10.9-10.65 2.798 2.733 3.498-3.417L31.02 32 33 30.067 18.602 16l1.647-1.61a5.497 5.497 0 0 0 2.563.687c1.15.03 2.18-.27 2.83-.588l.203-.1L33 7.4l-1.978-1.932-6.812 6.655a3.615 3.615 0 0 1-1.326.223 2.976 2.976 0 0 1-.488-.052l7.806-7.627-1.978-1.933-7.807 7.627a2.788 2.788 0 0 1-.053-.477 3.39 3.39 0 0 1 .229-1.295l6.811-6.655zM3.046 4.669l14.396 14.064-1.519 1.484L3.623 8.2c-.726-.71-.917-1.605-.79-2.587a5.51 5.51 0 0 1 .213-.944z"/></symbol><symbol viewBox="0 0 39 41" id="ic2" xmlns="http://www.w3.org/2000/svg"><path d="M36.844 22.9H2.156C1.46 22.9.9 23.486.9 24.2V29c0 3.361 2.634 6.1 5.881 6.1h18.5c2.818 0 5.17-2.06 5.745-4.8h5.818c.697 0 1.256-.586 1.256-1.3v-4.8c0-.714-.56-1.3-1.256-1.3zM28.65 29c0 1.933-1.515 3.5-3.369 3.5h-18.5c-1.853 0-3.368-1.567-3.368-3.5v-3.5H28.65V29zm6.938-1.3h-4.425v-2.2h4.424v2.2zM22.539 13.654c.332.74.386 1.265.358 1.603-.025.304-.117.463-.14.497-.437.497-.477 1.334-.085 1.884.214.3.516.462.828.462.266 0 .53-.119.737-.348.085-.095 1.745-2.016.224-5.405-.325-.727-.383-1.245-.355-1.587.027-.332.134-.504.162-.544.414-.496.444-1.313.06-1.854-.199-.28-.475-.438-.764-.46a.973.973 0 0 0-.801.347c-.088.097-1.744 2.018-.224 5.405zm-8-2.001c-1.52-3.389.138-5.31.224-5.406m-.224 5.406l.299-5.339m-.3 5.34c.333.74.387 1.265.359 1.603-.026.304-.117.463-.14.497m-.218-2.1l.299 2.16m-.075-7.567l.075.067m-.075-.067l.075.067m-.075-.067a.98.98 0 0 1 .802-.345c.288.021.564.18.763.46m-1.49-.048c.409-.455 1.041-.412 1.408.105m.082-.058l-.082.058m.082-.058c.384.54.354 1.359-.06 1.855m.06-1.855l-.082.058m0 0l.021 1.797m0 0l.002-.003-.08-.059.076.065.002-.003zm0 0c-.05.071-.447.7.194 2.13m-.194-2.13l-1.513 7.364m1.707-5.234l-.091.041.091-.04zm0 0c1.52 3.39-.139 5.311-.224 5.406a.994.994 0 0 1-.737.348c-.312 0-.614-.162-.828-.462m0 0l.082-.058m-.082.058l.082-.058m-.082.058c-.392-.55-.352-1.387.086-1.884m-.004 1.826c-.367-.515-.328-1.305.084-1.765m-.08-.06l-.004.005v.001l.084.054m-.08-.06l.005-.007.075.067m-6.51-5.453c-.2-.28-.476-.438-.765-.46a.972.972 0 0 0-.8.347c-.088.097-1.744 2.018-.224 5.405.332.74.386 1.265.358 1.603-.026.304-.117.463-.14.497-.437.497-.477 1.334-.085 1.884.214.3.516.462.828.462.266 0 .53-.119.737-.348.085-.095 1.745-2.016.224-5.405-.64-1.43-.245-2.059-.194-2.13.415-.496.445-1.314.06-1.855z"/></symbol><symbol viewBox="0 0 45 45" id="ic3" xmlns="http://www.w3.org/2000/svg"><path d="M29.133 21.506a1.42 1.42 0 0 1-.392 1.964c-1.492.998-5.44 3.248-9.578 4.434a1.417 1.417 0 0 1-.776-2.724c3.773-1.082 7.453-3.176 8.787-4.067a1.41 1.41 0 0 1 1.959.393zm-3.295-5.589c0 1.565-.948 2.833-2.119 2.833-1.17 0-2.119-1.268-2.119-2.833 0-1.565.949-2.834 2.12-2.834 1.17 0 2.118 1.269 2.118 2.834zm5.729 12.512a1.42 1.42 0 0 0 .392-1.965 1.41 1.41 0 0 0-1.96-.393c-.925.619-3.091 1.632-5.672 2.703-2.535 1.052-5.329 2.102-7.412 2.799a1.417 1.417 0 0 0 .894 2.688c2.155-.72 5.012-1.795 7.598-2.869 2.541-1.054 4.966-2.165 6.16-2.963z"/><path fill-rule="evenodd" clip-rule="evenodd" d="M19.123 7.015C20.443 6.29 21.979 6 23.719 6c1.747 0 3.15.299 4.297.89 1.16.597 1.952 1.439 2.554 2.345.516.775.918 1.644 1.28 2.423l.13.279c.413.886.812 1.693 1.354 2.432.833 1.136 1.81 2.22 2.785 3.303.389.432.778.865 1.158 1.3.641.734 1.256 1.481 1.728 2.206.457.7.878 1.527.956 2.406.402 4.565-2.31 8.714-6.429 11.63C29.39 38.147 23.63 40 17.362 40h-.144c-2.367 0-5.195 0-7.348-.687-1.129-.36-2.236-.955-2.987-1.986-.773-1.063-1.025-2.389-.809-3.902.245-1.722.667-3.01 1.26-4.054.596-1.048 1.317-1.766 2.016-2.386.19-.168.379-.33.567-.49 1.114-.956 2.194-1.882 3.248-3.917.69-5.49 1.415-9.577 2.863-12.289.764-1.429 1.758-2.54 3.095-3.274zm-.604 4.612c-1.179 2.207-1.868 5.828-2.58 11.549l-.03.24-.11.218c-1.355 2.718-2.874 4.015-4.065 5.032-.18.152-.35.299-.513.442-.6.532-1.059 1.01-1.431 1.665-.375.66-.71 1.587-.919 3.052-.137.966.053 1.5.294 1.831.265.364.747.698 1.561.958 1.688.538 4.086.553 6.636.553 5.74 0 10.919-1.704 14.54-4.268 3.646-2.581 5.526-5.87 5.244-9.066-.016-.18-.133-.532-.507-1.106-.358-.551-.866-1.177-1.488-1.889-.318-.365-.669-.754-1.035-1.16-1.007-1.118-2.135-2.37-3.058-3.63-.721-.983-1.219-2.012-1.638-2.91l-.126-.272c-.378-.812-.687-1.476-1.075-2.06-.406-.61-.863-1.071-1.494-1.396-.644-.332-1.574-.577-3.006-.577-1.439 0-2.464.242-3.24.667-.76.418-1.4 1.077-1.96 2.127z"/></symbol><symbol viewBox="0 0 37 33" id="ic4" xmlns="http://www.w3.org/2000/svg"><path fill-rule="evenodd" clip-rule="evenodd" d="M28.645 22.393c1.978 0 3.58-1.583 3.58-3.536s-1.602-3.536-3.58-3.536c-1.977 0-3.58 1.583-3.58 3.536s1.602 3.536 3.58 3.536zm0-2.357c.66 0 1.194-.528 1.194-1.179 0-.65-.535-1.178-1.194-1.178-.66 0-1.194.527-1.194 1.178 0 .651.535 1.179 1.194 1.179z"/><path fill-rule="evenodd" clip-rule="evenodd" d="M25.064 0H3.581v1.179c0 1.128.326 2.72 2.036 3.968.922.672 2.194 1.203 3.931 1.536v8.638H7.161v-2.357H0V25.93h7.161v-2.36h7.387L10.055 33H37V10.607H20.727l-2.247 4.714h-1.77V6.983c3.03-.239 5.03-.946 6.33-1.919 1.686-1.26 2.024-2.835 2.024-3.885V0zM14.322 7.071c-.858 0-1.653-.028-2.387-.083v8.333h2.387v-8.25zm-7.287-3.82c-.392-.286-.644-.59-.804-.894h16.135a2.852 2.852 0 0 1-.767.829c-1.012.756-3.09 1.528-7.277 1.528-4.202 0-6.28-.728-7.287-1.463zm8.636 17.963l1.686-3.535H7.16v3.535h8.51zm-1.855 9.429l8.425-17.679h12.372v17.679H13.816zM2.387 15.32v8.25h2.387v-8.25H2.387z"/></symbol><symbol viewBox="0 0 31 37" id="ic5" xmlns="http://www.w3.org/2000/svg"><path d="M25.308 8.19a.703.703 0 1 1-1.406 0 .703.703 0 0 1 1.406 0z"/><path fill-rule="evenodd" clip-rule="evenodd" d="M18.936 6.276C17.403 5.2 16.87 4.587 16.87 3.975c0-.703 0-1.405 1.407-1.405.938 0 1.25-.625 1.563-1.25.156-.312.312-.624.547-.858.703-.703 2.812-.703 3.515.702.546 1.09 1.513.912 2.248.777.214-.039.407-.074.565-.074.703 0 1.407 2.108 1.407 2.81 0 .202-.116.345-.297.448a4.322 4.322 0 0 1 .976 2.182c.719 1.198 1.616 2.475 2.133 2.992.46.459-1.549 1.26-3.194 1.795-.423.85-.963 1.75-1.616 2.704.674 2.783 1.46 6.752.833 10.242-.345 1.917-1.131 3.788-2.679 5.227-1.168 1.086-2.69 1.851-4.595 2.246v1.676h1.407v1.406h-1.407V37h-1.406v-1.405h-2.813V37h-1.406v-1.405H12.65v-1.406h1.407v-1.831c-3.135-.993-5.495-3.514-7.178-6.273-.896-1.468-1.636-3.057-2.235-4.63A11.963 11.963 0 0 1 0 19.953l1.392-2.442a9.1 9.1 0 0 0 2.252.91 33.325 33.325 0 0 1-.82-3.683l2.777-.444A31.49 31.49 0 0 0 6.66 18.7c2.318-.132 4.658-1.012 6.72-2.398 3.736-2.514 5.988-6.296 5.609-9.343a7.24 7.24 0 0 1-.054-.683zm-1.36 23.694c2.107-2.11 2.81-7.024 2.106-7.726-.703-.703-.703-2.108 0-2.81.704-.703 2.813.702 2.813 2.107 0 .426-.129 1.045-.27 1.72-.324 1.556-.71 3.412.27 3.902.192.096.372.192.536.288.582-.803.954-1.783 1.156-2.908.555-3.091-.238-6.855-.947-9.687l-.157-.63.377-.528c1.713-2.396 2.427-4.094 2.56-5.232.065-.544-.008-.917-.127-1.182-.118-.261-.32-.507-.662-.734-.972-.648-2.223-1.16-3.015-1.158a.887.887 0 0 0-.314.045c-.032.012-.037.02-.04.024-.013.017-.19.274-.08 1.151.565 4.548-2.667 9.22-6.831 12.021-2.137 1.437-4.665 2.484-7.287 2.8.463 1.097 1 2.18 1.616 3.189 2.06 3.377 4.757 5.584 8.2 5.355l.096-.007zm-2.113 4.22v-1.502c.7.11 1.434.144 2.203.093.207-.014.41-.031.61-.052v1.46h-2.813z"/></symbol><symbol viewBox="0 0 35 35" id="ic6" xmlns="http://www.w3.org/2000/svg"><path fill-rule="evenodd" clip-rule="evenodd" d="M16.452.184L15.36 0l-.436 1.026c-1.011 2.379-2.497 4.893-3.974 6.717-.742.916-1.437 1.602-2.023 2.016-.536.378-.787.395-.827.398h-.005l.003.002c-1.206-.303-2.519.105-3.583.706-1.114.628-2.199 1.597-3.025 2.795C.66 14.862.059 16.344.004 17.99c-.055 1.666.453 3.402 1.691 5.066.719.966 1.673 1.673 2.75 2.186L7.423 35h20.389l4.299-13.005c.709-.379 1.29-.82 1.744-1.325.772-.857 1.14-1.862 1.145-2.91.004-1.013-.331-1.978-.806-2.83-.942-1.688-2.592-3.219-4.274-4.318-1.265-.826-2.705-1.51-4.045-1.786C24.732 3.814 20.878.927 16.453.184zM28.756 23.15c-.883.19-1.86.335-2.93.44-.327.175-.723.346-1.146.508v5.213h-2.82v-4.318c-.859.232-1.81.458-2.82.662v3.657h-2.82v-3.176a37.855 37.855 0 0 1-2.82.291v2.884h-2.82V26.49a20.816 20.816 0 0 1-2.886-.268l1.812 5.935h16.273l2.977-9.005zM13.135 9.54c1.433-1.77 2.834-4.059 3.9-6.323 3.223.88 5.703 3.24 6.25 7.1l.172 1.221h1.223c.833 0 2.23.496 3.706 1.46 1.447.945 2.705 2.17 3.35 3.325.318.57.445 1.05.444 1.425-.002.34-.106.669-.414 1.01-.7.777-2.514 1.678-6.503 2.028l-.36.031-.3.202c-.115.078-.465.253-1.106.49a27.92 27.92 0 0 1-2.3.72 43.559 43.559 0 0 1-6.452 1.226c-2.354.259-4.699.292-6.667-.054-1.996-.351-3.382-1.05-4.126-2.052-.878-1.18-1.162-2.287-1.13-3.265.034-.998.402-1.96.983-2.801A6.549 6.549 0 0 1 5.78 13.41c.757 1.372 1.674 2.955 3.286 4.092 2.158 1.523 5.374 2.216 10.773 1.853l-.188-2.837c-5.177.348-7.6-.38-8.968-1.346-.862-.608-1.382-1.33-1.918-2.245.667-.146 1.278-.486 1.779-.84.881-.621 1.764-1.526 2.59-2.547z"/></symbol><symbol viewBox="0 0 34 43" id="ic7" xmlns="http://www.w3.org/2000/svg"><path d="M33.1 17.454v-1.227c0-.726-.55-1.327-1.243-1.327H2.143C1.45 14.9.9 15.501.9 16.227v1.227c0 7.016 3.921 13.065 9.537 15.769l-4.719 6.756c-.409.584-.3 1.412.248 1.853.224.182.486.268.748.268.38 0 .754-.186.997-.534l5.181-7.42c1.313.373 2.685.59 4.108.59 1.423 0 2.795-.217 4.108-.59l5.181 7.42c.243.348.616.534.997.534.26 0 .522-.086.746-.268.547-.441.656-1.269.248-1.853l-4.719-6.756c5.618-2.704 9.539-8.753 9.539-15.768zM17 32.082c-7.47 0-13.564-6.5-13.614-14.527h27.228c-.05 8.027-6.143 14.527-13.614 14.527zm7.539-23.428c.332.74.386 1.265.358 1.603-.025.304-.117.463-.14.497-.437.497-.477 1.334-.085 1.884.214.3.516.462.828.462.266 0 .53-.119.737-.348.085-.095 1.745-2.016.224-5.405-.325-.727-.383-1.245-.355-1.587.027-.332.134-.504.162-.544.414-.496.444-1.314.06-1.854-.2-.28-.475-.438-.764-.46a.973.973 0 0 0-.801.347c-.088.097-1.744 2.018-.224 5.405zm-7.776-7.407c-.086.096-1.745 2.017-.224 5.406.332.741.386 1.266.358 1.604-.025.304-.117.462-.14.497-.437.497-.477 1.334-.085 1.884.214.3.516.462.828.462.266 0 .53-.119.737-.348.085-.095 1.745-2.017.224-5.406-.64-1.43-.245-2.059-.194-2.13.415-.496.445-1.314.06-1.855-.198-.28-.474-.438-.762-.459a.98.98 0 0 0-.802.345zm0 0l.074.067-.074-.067zm-6.435 2.115c-.2-.28-.476-.438-.765-.46a.972.972 0 0 0-.8.347c-.088.097-1.744 2.018-.224 5.405.332.74.386 1.265.358 1.603-.026.304-.117.463-.14.497-.437.497-.477 1.334-.085 1.884.214.3.516.462.828.462.266 0 .53-.119.737-.348.085-.095 1.745-2.016.224-5.405-.641-1.43-.245-2.059-.194-2.13.415-.496.445-1.314.06-1.855z"/></symbol><symbol viewBox="0 0 9 1" id="icon-minus" xmlns="http://www.w3.org/2000/svg"><path d="M0 0h9v1H0z"/></symbol><symbol viewBox="0 0 9 9" id="icon-plus" xmlns="http://www.w3.org/2000/svg"><path d="M0 4h9v1H0V4z"/><path d="M4 9V0h1v9H4z"/></symbol><symbol viewBox="0 0 25 25" id="inst" xmlns="http://www.w3.org/2000/svg"><path d="M14.893 12.5a2.393 2.393 0 1 1-4.785 0 2.393 2.393 0 0 1 4.785 0z"/><path d="M18.096 8.267a2.224 2.224 0 0 0-.537-.825 2.222 2.222 0 0 0-.825-.537c-.253-.098-.633-.215-1.333-.247-.757-.034-.984-.042-2.9-.042-1.917 0-2.144.007-2.9.042-.7.032-1.08.149-1.333.247a2.221 2.221 0 0 0-.826.537 2.225 2.225 0 0 0-.537.825c-.098.253-.215.633-.247 1.333-.034.757-.042.984-.042 2.9 0 1.917.008 2.144.042 2.901.032.7.149 1.08.247 1.333.115.312.299.594.537.825.232.239.514.422.825.537.253.099.633.215 1.333.247.757.035.984.042 2.9.042 1.918 0 2.144-.007 2.901-.042.7-.032 1.08-.148 1.333-.247a2.377 2.377 0 0 0 1.362-1.362c.098-.253.215-.633.247-1.333.035-.757.042-.984.042-2.9 0-1.917-.007-2.144-.042-2.9-.032-.7-.148-1.08-.247-1.334zm-5.595 7.92a3.686 3.686 0 1 1 0-7.372 3.686 3.686 0 0 1 0 7.371zm3.831-6.657a.861.861 0 1 1 0-1.722.861.861 0 0 1 0 1.722z"/><path d="M12.5 0C5.598 0 0 5.598 0 12.5S5.598 25 12.5 25 25 19.402 25 12.5 19.402 0 12.5 0zm7.134 15.46c-.034.763-.156 1.285-.333 1.742a3.67 3.67 0 0 1-2.1 2.099c-.456.177-.978.299-1.742.333-.765.035-1.01.044-2.959.044-1.95 0-2.194-.009-2.96-.044-.763-.035-1.285-.156-1.741-.333a3.516 3.516 0 0 1-1.272-.828 3.518 3.518 0 0 1-.828-1.271c-.177-.457-.299-.979-.333-1.743-.036-.765-.044-1.01-.044-2.959 0-1.95.008-2.194.044-2.96.034-.763.156-1.285.333-1.742.18-.479.463-.912.828-1.27a3.516 3.516 0 0 1 1.271-.829c.457-.177.979-.299 1.743-.333.765-.035 1.01-.044 2.959-.044 1.95 0 2.194.009 2.96.044.763.034 1.285.156 1.742.333.478.18.912.463 1.271.828.365.359.648.792.828 1.271.177.457.299.979.334 1.743.034.765.043 1.01.043 2.959 0 1.95-.009 2.194-.044 2.96z"/></symbol><symbol viewBox="0 0 114 38" id="logo" xmlns="http://www.w3.org/2000/svg"><mask id="ara" maskUnits="userSpaceOnUse" x="0" y="0" width="114" height="38"><path d="M0 0h114v38H0z"/><path d="M1.862 14.083v.533h2.695c1.535 0 2.82-.315 3.855-.945 1.035-.642 1.552-1.415 1.552-2.32 0-1.227-.955-2.35-2.865-3.37 1.91-.95 2.809-1.942 2.695-2.973 0-.516-.194-1.054-.58-1.616-.523-.733-1.228-1.1-2.115-1.1H1.862v.688c.273-.092.631-.138 1.075-.138v11.241H1.862zm2.831-.137L4.83 2.98a4.89 4.89 0 0 1 .41-.017c.568 0 1.08.12 1.535.36.523.298.858.722 1.006 1.272.091.321.136.625.136.911 0 .665-.244 1.244-.733 1.736-.262.264-.7.573-1.314.929-.454.275-.67.48-.648.618 0 .104.376.333 1.126.688.808.367 1.285.728 1.433 1.083.216.504.324.945.324 1.323 0 .676-.375 1.175-1.126 1.496-.227.091-.99.28-2.286.567zm9.26-10.829c-1.934.928-2.832 3.14-2.696 6.635.068 1.787.853 3.134 2.354 4.04 1.103.675 2.331 1.013 3.685 1.013.261 0 .489-.017.682-.051 2.308-.436 3.832-1.02 4.571-1.753 1.149-1.146 1.723-2.665 1.723-4.555 0-1.593-.415-2.991-1.245-4.194-.91-1.307-2.098-2.046-3.565-2.218A4.54 4.54 0 0 0 18.865 2c-.773 0-1.586.086-2.44.258-1.023.206-1.847.493-2.473.86zm4.025-.412c1.433.458 2.53 1.209 3.292 2.251.728 1.009 1.092 2.206 1.092 3.593 0 .39-.029.79-.085 1.203-.24 1.616-.984 2.802-2.235 3.558-1.206.722-2.462.82-3.77.292-1.433-.584-2.473-1.782-3.121-3.592a4.444 4.444 0 0 1-.256-1.496c0-1.352.517-2.607 1.552-3.764 1.023-1.123 2.2-1.805 3.53-2.045zm9.47 1.22c-.728.516-1.285 1.26-1.672 2.235-.341.859-.512 1.81-.512 2.853 0 1.283.233 2.337.7 3.162 1.023 1.822 2.558 2.733 4.605 2.733 1.24 0 2.542-.32 3.906-.962 1.138-.55 1.797-1.003 1.98-1.358l-.547-.413c-.34.447-.892.826-1.654 1.135a6.688 6.688 0 0 1-2.49.481c-1.036 0-1.917-.246-2.645-.739-.853-.584-1.41-1.46-1.671-2.63a9.061 9.061 0 0 1-.24-2.01c0-1.628.467-2.94 1.4-3.937.886-.951 1.984-1.427 3.292-1.427 1.285 0 2.49.47 3.616 1.41l1.075-1.083c-.273-.263-.723-.533-1.348-.808-.625-.286-1.075-.418-1.348-.395a17.926 17.926 0 0 0-4.179.808c-1.114.355-1.87.67-2.268.945zm18.919-.55c.296-.286.517-.647.665-1.083l-.136-.12c-1.024.298-2.843.447-5.459.447-2.99 0-4.526-.15-4.605-.447-.08.24-.302.556-.666.945.887.172 2.406.258 4.555.258 0 .252.017 1.238.05 2.956.046 1.72.07 3.14.07 4.263 0 1.673-.04 3.014-.12 4.022.398-.069.71-.103.938-.103.227 0 .54.034.938.103 0-1.214.023-3.048.068-5.5.046-2.464.069-4.331.069-5.603.398 0 .989-.023 1.774-.07a33.714 33.714 0 0 1 1.859-.068zm3.767-.258c-1.934.928-2.832 3.14-2.696 6.635.069 1.787.853 3.134 2.354 4.04 1.103.675 2.332 1.013 3.685 1.013.262 0 .489-.017.682-.051 2.309-.436 3.833-1.02 4.572-1.753 1.148-1.146 1.723-2.665 1.723-4.555 0-1.593-.415-2.991-1.245-4.194-.91-1.307-2.099-2.046-3.566-2.218A4.54 4.54 0 0 0 55.046 2c-.773 0-1.586.086-2.439.258-1.023.206-1.848.493-2.473.86zm4.025-.412c1.433.458 2.53 1.209 3.293 2.251.727 1.009 1.091 2.206 1.091 3.593 0 .39-.028.79-.085 1.203-.239 1.616-.984 2.802-2.235 3.558-1.205.722-2.462.82-3.77.292-1.432-.584-2.473-1.782-3.121-3.592a4.444 4.444 0 0 1-.256-1.496c0-1.352.517-2.607 1.552-3.764 1.024-1.123 2.2-1.805 3.531-2.045zm18.05-.67l-2.013.257c-.17 1.352-.256 5.506-.256 12.462l2.013-.275a25.378 25.378 0 0 1-.085-2.27c0-1.11.057-2.858.17-5.242.114-2.394.171-4.039.171-4.933zM63.441 2c-.011 0-.347.086-1.006.258-.41.103-.75.155-1.024.155.103 1.455.228 2.435.376 2.939.125.962.438 1.92.938 2.87.341.722.904 1.375 1.689 1.96.898.676 1.814 1.014 2.746 1.014 1.876 0 3.264-.676 4.162-2.028.228-.253.444-.556.648-.911l-1.108-.825c-.364 1.145-.706 1.856-1.024 2.13-.33.287-.847.43-1.552.43-1.32 0-2.314-.378-2.985-1.134-.671-.768-1.132-1.501-1.382-2.2-.239-.699-.387-1.49-.444-2.372A19.88 19.88 0 0 1 63.441 2zm12.605.292l-2.013.138c.17.756.256 2.028.256 3.816 0 2.383-.131 5.219-.393 8.508l2.013-.275.137-5.415 1.637.035c1.103.023 2.064.034 2.883.034 2.638 0 4.043-.114 4.213-.344v5.965l2.013-.138a107.56 107.56 0 0 1-.136-5.655c0-2.693.09-4.916.273-6.669h-1.894c-.022.355-.011.934.034 1.736.046.951.069 1.593.069 1.925 0 1.65-.347 2.418-1.04 2.304h-8.052V2.292zm20.41 0a3.034 3.034 0 0 1-.733.103c-.228 0-.477-.034-.75-.103-.865 1.81-2.024 3.879-3.48 6.205-.16.24-1.462 2.235-3.906 5.982l.136.137h1.484c.614-.94 1.461-2.337 2.542-4.194l.614-1.1c.204-.263.54-.395 1.007-.395.465.057.966.086 1.5.086.853 0 1.65-.075 2.388-.224.478.803 1.007 1.84 1.587 3.111a195.55 195.55 0 0 0 1.364 2.991 45.07 45.07 0 0 1 1.894-.412l-3.276-6.704c-1.307-2.67-2.097-4.497-2.37-5.483zm.495 5.827c-.25.172-1.091.258-2.524.258-.933 0-1.399-.069-1.399-.206 0-.012.011-.029.034-.052l2.15-3.919 1.74 3.919zm12.961.67c-1.183-.034-2.189-.48-3.019-1.34-.41-.527-.614-1.077-.614-1.65 0-.768.335-1.438 1.006-2.011.66-.436 1.575-.648 2.746-.636.182 5.11.274 8.886.274 11.327.273.091.943.137 2.012.137-.216-2.429-.324-5.322-.324-8.68a66.2 66.2 0 0 1 .052-2.802l.955-.017V2.43c-.808-.092-1.78-.11-2.917-.052-1.126.057-1.899.166-2.32.327-.637.229-1.109.458-1.416.687a5.12 5.12 0 0 0-1.297 1.478c-.397.665-.596 1.307-.596 1.926 0 1.065.585 1.873 1.757 2.423.307.15.955.246 1.944.292-.955.997-2.923 2.43-5.901 4.297.193.195.465.43.818.705.364.275.58.447.649.516 2.444-1.891 4.48-3.719 6.106-5.483l.085-.757zm-94.49 24.687c-1.341-2.67-3.252-6.434-5.73-11.292l-1.877.412c.114.527.17.825.17.894 0 .092-.016.155-.05.19a879.046 879.046 0 0 0-5.92 10.003l-.409-.018c-.512.07-.7 1.163-.563 3.283l1.16.052a5.4 5.4 0 0 0 .051-.756c0-.837.097-1.26.29-1.272.148-.012.347-.023.597-.035.262-.011 3.503-.023 9.723-.034 1.33 0 2.104-.006 2.32-.017.102 0 .154.35.154 1.048v1.014h.972c.33-1.375.489-2.177.478-2.406-.012-.23-.018-.39-.018-.481 0-.378-.449-.573-1.347-.585zm-11.7.19a71.16 71.16 0 0 1 2.507-5.002c1.24-2.235 2.08-3.673 2.524-4.315l4.418 9.162-9.45.154zm16.677-10.262c-1.933.928-2.832 3.14-2.695 6.635.068 1.787.853 3.134 2.354 4.039 1.103.676 2.331 1.014 3.684 1.014.262 0 .49-.017.683-.051 2.308-.436 3.832-1.02 4.571-1.754 1.149-1.146 1.723-2.664 1.723-4.555 0-1.592-.415-2.99-1.245-4.194-.91-1.306-2.098-2.045-3.565-2.217a4.561 4.561 0 0 0-.597-.034c-.774 0-1.587.086-2.44.258-1.023.206-1.848.492-2.473.859zm4.026-.413c1.433.459 2.53 1.21 3.292 2.252.728 1.009 1.091 2.206 1.091 3.593 0 .39-.028.79-.085 1.203-.239 1.615-.983 2.801-2.234 3.558-1.206.722-2.462.819-3.77.292-1.433-.585-2.474-1.782-3.122-3.593a4.443 4.443 0 0 1-.256-1.495c0-1.352.518-2.607 1.553-3.764 1.023-1.123 2.2-1.805 3.53-2.046zm21.052 11.38c-1.342-2.705-3.4-6.767-6.175-12.187l-1.877.412c.114.527.17.825.17.894 0 .092-.016.155-.05.19-1.479 2.44-3.668 6.135-6.568 11.086l.12.275 1.62-.533c.933-1.81 1.973-3.759 3.122-5.844 1.24-2.235 2.08-3.673 2.524-4.315l5.1 10.554 2.014-.533zm12.337.395c.25.045.506.097.767.154.262.057.5.143.717.258-.216-3.45-.325-6.543-.325-9.282 0-1.157.018-2.303.052-3.437-.273 0-.762-.092-1.467-.275-1.047 1.34-2.559 3.036-4.538 5.087-.34.356-2.052 2.086-5.134 5.191.034-.756.063-2.383.085-4.881.023-2.074.08-3.696.17-4.865-.522 0-1.057-.131-1.603-.395-.011.436-.017.945-.017 1.53 0 .71.017 1.833.051 3.369.034 1.535.052 2.641.052 3.317 0 2.005-.12 3.191-.359 3.558.671.447 1.166.762 1.484.946.353-.356 1.439-1.439 3.258-3.25a434.09 434.09 0 0 0 3.259-3.282 174.747 174.747 0 0 0 3.155-3.352l.24 4.847c.101 1.925.153 3.512.153 4.762zm5.438-12.187l-2.013.137c.171.757.256 2.029.256 3.816 0 2.384-.13 5.22-.392 8.509l2.013-.275.136-5.415 1.638.035c1.103.023 2.064.034 2.883.034 2.638 0 4.042-.115 4.213-.344v5.965l2.013-.138a107.559 107.559 0 0 1-.137-5.655c0-2.693.091-4.916.273-6.669h-1.893c-.023.355-.011.934.034 1.736.045.951.068 1.593.068 1.925 0 1.65-.347 2.418-1.04 2.303h-8.052V22.58zm20.411 0a3.035 3.035 0 0 1-.733.103 3.09 3.09 0 0 1-.75-.103c-.865 1.81-2.025 3.879-3.48 6.205-.16.24-1.462 2.234-3.907 5.982l.136.137h1.484c.615-.94 1.462-2.338 2.542-4.194l.614-1.1c.205-.264.54-.395 1.007-.395.466.057.966.086 1.5.086.854 0 1.65-.075 2.389-.224.477.802 1.006 1.84 1.586 3.111a177.981 177.981 0 0 0 1.365 2.991c.41-.103 1.04-.24 1.893-.412l-3.275-6.704c-1.308-2.67-2.098-4.498-2.37-5.483zm.495 5.827c-.25.172-1.092.258-2.525.258-.932 0-1.398-.07-1.398-.207 0-.011.01-.028.034-.051l2.149-3.92 1.74 3.92z"/></mask><path d="M1.862 14.083v.533h2.695c1.535 0 2.82-.315 3.855-.945 1.035-.642 1.552-1.415 1.552-2.32 0-1.227-.955-2.35-2.865-3.37 1.91-.95 2.809-1.942 2.695-2.973 0-.516-.194-1.054-.58-1.616-.523-.733-1.228-1.1-2.115-1.1H1.862v.688c.273-.092.631-.138 1.075-.138v11.241H1.862zm2.831-.137L4.83 2.98a4.89 4.89 0 0 1 .41-.017c.568 0 1.08.12 1.535.36.523.298.858.722 1.006 1.272.091.321.136.625.136.911 0 .665-.244 1.244-.733 1.736-.262.264-.7.573-1.314.929-.454.275-.67.48-.648.618 0 .104.376.333 1.126.688.808.367 1.285.728 1.433 1.083.216.504.324.945.324 1.323 0 .676-.375 1.175-1.126 1.496-.227.091-.99.28-2.286.567zm9.26-10.829c-1.934.928-2.832 3.14-2.696 6.635.068 1.787.853 3.134 2.354 4.04 1.103.675 2.331 1.013 3.685 1.013.261 0 .489-.017.682-.051 2.308-.436 3.832-1.02 4.571-1.753 1.149-1.146 1.723-2.665 1.723-4.555 0-1.593-.415-2.991-1.245-4.194-.91-1.307-2.098-2.046-3.565-2.218A4.54 4.54 0 0 0 18.865 2c-.773 0-1.586.086-2.44.258-1.023.206-1.847.493-2.473.86zm4.025-.412c1.433.458 2.53 1.209 3.292 2.251.728 1.009 1.092 2.206 1.092 3.593 0 .39-.029.79-.085 1.203-.24 1.616-.984 2.802-2.235 3.558-1.206.722-2.462.82-3.77.292-1.433-.584-2.473-1.782-3.121-3.592a4.444 4.444 0 0 1-.256-1.496c0-1.352.517-2.607 1.552-3.764 1.023-1.123 2.2-1.805 3.53-2.045zm9.47 1.22c-.728.516-1.285 1.26-1.672 2.235-.341.859-.512 1.81-.512 2.853 0 1.283.233 2.337.7 3.162 1.023 1.822 2.558 2.733 4.605 2.733 1.24 0 2.542-.32 3.906-.962 1.138-.55 1.797-1.003 1.98-1.358l-.547-.413c-.34.447-.892.826-1.654 1.135a6.688 6.688 0 0 1-2.49.481c-1.036 0-1.917-.246-2.645-.739-.853-.584-1.41-1.46-1.671-2.63a9.061 9.061 0 0 1-.24-2.01c0-1.628.467-2.94 1.4-3.937.886-.951 1.984-1.427 3.292-1.427 1.285 0 2.49.47 3.616 1.41l1.075-1.083c-.273-.263-.723-.533-1.348-.808-.625-.286-1.075-.418-1.348-.395a17.926 17.926 0 0 0-4.179.808c-1.114.355-1.87.67-2.268.945zm18.919-.55c.296-.286.517-.647.665-1.083l-.136-.12c-1.024.298-2.843.447-5.459.447-2.99 0-4.526-.15-4.605-.447-.08.24-.302.556-.666.945.887.172 2.406.258 4.555.258 0 .252.017 1.238.05 2.956.046 1.72.07 3.14.07 4.263 0 1.673-.04 3.014-.12 4.022.398-.069.71-.103.938-.103.227 0 .54.034.938.103 0-1.214.023-3.048.068-5.5.046-2.464.069-4.331.069-5.603.398 0 .989-.023 1.774-.07a33.714 33.714 0 0 1 1.859-.068zm3.767-.258c-1.934.928-2.832 3.14-2.696 6.635.069 1.787.853 3.134 2.354 4.04 1.103.675 2.332 1.013 3.685 1.013.262 0 .489-.017.682-.051 2.309-.436 3.833-1.02 4.572-1.753 1.148-1.146 1.723-2.665 1.723-4.555 0-1.593-.415-2.991-1.245-4.194-.91-1.307-2.099-2.046-3.566-2.218A4.54 4.54 0 0 0 55.046 2c-.773 0-1.586.086-2.439.258-1.023.206-1.848.493-2.473.86zm4.025-.412c1.433.458 2.53 1.209 3.293 2.251.727 1.009 1.091 2.206 1.091 3.593 0 .39-.028.79-.085 1.203-.239 1.616-.984 2.802-2.235 3.558-1.205.722-2.462.82-3.77.292-1.432-.584-2.473-1.782-3.121-3.592a4.444 4.444 0 0 1-.256-1.496c0-1.352.517-2.607 1.552-3.764 1.024-1.123 2.2-1.805 3.531-2.045zm18.05-.67l-2.013.257c-.17 1.352-.256 5.506-.256 12.462l2.013-.275a25.378 25.378 0 0 1-.085-2.27c0-1.11.057-2.858.17-5.242.114-2.394.171-4.039.171-4.933zM63.441 2c-.011 0-.347.086-1.006.258-.41.103-.75.155-1.024.155.103 1.455.228 2.435.376 2.939.125.962.438 1.92.938 2.87.341.722.904 1.375 1.689 1.96.898.676 1.814 1.014 2.746 1.014 1.876 0 3.264-.676 4.162-2.028.228-.253.444-.556.648-.911l-1.108-.825c-.364 1.145-.706 1.856-1.024 2.13-.33.287-.847.43-1.552.43-1.32 0-2.314-.378-2.985-1.134-.671-.768-1.132-1.501-1.382-2.2-.239-.699-.387-1.49-.444-2.372A19.88 19.88 0 0 1 63.441 2zm12.605.292l-2.013.138c.17.756.256 2.028.256 3.816 0 2.383-.131 5.219-.393 8.508l2.013-.275.137-5.415 1.637.035c1.103.023 2.064.034 2.883.034 2.638 0 4.043-.114 4.213-.344v5.965l2.013-.138a107.56 107.56 0 0 1-.136-5.655c0-2.693.09-4.916.273-6.669h-1.894c-.022.355-.011.934.034 1.736.046.951.069 1.593.069 1.925 0 1.65-.347 2.418-1.04 2.304h-8.052V2.292zm20.41 0a3.034 3.034 0 0 1-.733.103c-.228 0-.477-.034-.75-.103-.865 1.81-2.024 3.879-3.48 6.205-.16.24-1.462 2.235-3.906 5.982l.136.137h1.484c.614-.94 1.461-2.337 2.542-4.194l.614-1.1c.204-.263.54-.395 1.007-.395.465.057.966.086 1.5.086.853 0 1.65-.075 2.388-.224.478.803 1.007 1.84 1.587 3.111a195.55 195.55 0 0 0 1.364 2.991 45.07 45.07 0 0 1 1.894-.412l-3.276-6.704c-1.307-2.67-2.097-4.497-2.37-5.483zm.495 5.827c-.25.172-1.091.258-2.524.258-.933 0-1.399-.069-1.399-.206 0-.012.011-.029.034-.052l2.15-3.919 1.74 3.919zm12.961.67c-1.183-.034-2.189-.48-3.019-1.34-.41-.527-.614-1.077-.614-1.65 0-.768.335-1.438 1.006-2.011.66-.436 1.575-.648 2.746-.636.182 5.11.274 8.886.274 11.327.273.091.943.137 2.012.137-.216-2.429-.324-5.322-.324-8.68a66.2 66.2 0 0 1 .052-2.802l.955-.017V2.43c-.808-.092-1.78-.11-2.917-.052-1.126.057-1.899.166-2.32.327-.637.229-1.109.458-1.416.687a5.12 5.12 0 0 0-1.297 1.478c-.397.665-.596 1.307-.596 1.926 0 1.065.585 1.873 1.757 2.423.307.15.955.246 1.944.292-.955.997-2.923 2.43-5.901 4.297.193.195.465.43.818.705.364.275.58.447.649.516 2.444-1.891 4.48-3.719 6.106-5.483l.085-.757zm-94.49 24.687c-1.341-2.67-3.252-6.434-5.73-11.292l-1.877.412c.114.527.17.825.17.894 0 .092-.016.155-.05.19a879.046 879.046 0 0 0-5.92 10.003l-.409-.018c-.512.07-.7 1.163-.563 3.283l1.16.052a5.4 5.4 0 0 0 .051-.756c0-.837.097-1.26.29-1.272.148-.012.347-.023.597-.035.262-.011 3.503-.023 9.723-.034 1.33 0 2.104-.006 2.32-.017.102 0 .154.35.154 1.048v1.014h.972c.33-1.375.489-2.177.478-2.406-.012-.23-.018-.39-.018-.481 0-.378-.449-.573-1.347-.585zm-11.7.19a71.16 71.16 0 0 1 2.507-5.002c1.24-2.235 2.08-3.673 2.524-4.315l4.418 9.162-9.45.154zm16.677-10.262c-1.933.928-2.832 3.14-2.695 6.635.068 1.787.853 3.134 2.354 4.039 1.103.676 2.331 1.014 3.684 1.014.262 0 .49-.017.683-.051 2.308-.436 3.832-1.02 4.571-1.754 1.149-1.146 1.723-2.664 1.723-4.555 0-1.592-.415-2.99-1.245-4.194-.91-1.306-2.098-2.045-3.565-2.217a4.561 4.561 0 0 0-.597-.034c-.774 0-1.587.086-2.44.258-1.023.206-1.848.492-2.473.859zm4.026-.413c1.433.459 2.53 1.21 3.292 2.252.728 1.009 1.091 2.206 1.091 3.593 0 .39-.028.79-.085 1.203-.239 1.615-.983 2.801-2.234 3.558-1.206.722-2.462.819-3.77.292-1.433-.585-2.474-1.782-3.122-3.593a4.443 4.443 0 0 1-.256-1.495c0-1.352.518-2.607 1.553-3.764 1.023-1.123 2.2-1.805 3.53-2.046zm21.052 11.38c-1.342-2.705-3.4-6.767-6.175-12.187l-1.877.412c.114.527.17.825.17.894 0 .092-.016.155-.05.19-1.479 2.44-3.668 6.135-6.568 11.086l.12.275 1.62-.533c.933-1.81 1.973-3.759 3.122-5.844 1.24-2.235 2.08-3.673 2.524-4.315l5.1 10.554 2.014-.533zm12.337.395c.25.045.506.097.767.154.262.057.5.143.717.258-.216-3.45-.325-6.543-.325-9.282 0-1.157.018-2.303.052-3.437-.273 0-.762-.092-1.467-.275-1.047 1.34-2.559 3.036-4.538 5.087-.34.356-2.052 2.086-5.134 5.191.034-.756.063-2.383.085-4.881.023-2.074.08-3.696.17-4.865-.522 0-1.057-.131-1.603-.395-.011.436-.017.945-.017 1.53 0 .71.017 1.833.051 3.369.034 1.535.052 2.641.052 3.317 0 2.005-.12 3.191-.359 3.558.671.447 1.166.762 1.484.946.353-.356 1.439-1.439 3.258-3.25a434.09 434.09 0 0 0 3.259-3.282 174.747 174.747 0 0 0 3.155-3.352l.24 4.847c.101 1.925.153 3.512.153 4.762zm5.438-12.187l-2.013.137c.171.757.256 2.029.256 3.816 0 2.384-.13 5.22-.392 8.509l2.013-.275.136-5.415 1.638.035c1.103.023 2.064.034 2.883.034 2.638 0 4.042-.115 4.213-.344v5.965l2.013-.138a107.559 107.559 0 0 1-.137-5.655c0-2.693.091-4.916.273-6.669h-1.893c-.023.355-.011.934.034 1.736.045.951.068 1.593.068 1.925 0 1.65-.347 2.418-1.04 2.303h-8.052V22.58zm20.411 0a3.035 3.035 0 0 1-.733.103 3.09 3.09 0 0 1-.75-.103c-.865 1.81-2.025 3.879-3.48 6.205-.16.24-1.462 2.234-3.907 5.982l.136.137h1.484c.615-.94 1.462-2.338 2.542-4.194l.614-1.1c.205-.264.54-.395 1.007-.395.466.057.966.086 1.5.086.854 0 1.65-.075 2.389-.224.477.802 1.006 1.84 1.586 3.111a177.981 177.981 0 0 0 1.365 2.991c.41-.103 1.04-.24 1.893-.412l-3.275-6.704c-1.308-2.67-2.098-4.498-2.37-5.483zm.495 5.827c-.25.172-1.092.258-2.525.258-.932 0-1.398-.07-1.398-.207 0-.011.01-.028.034-.051l2.149-3.92 1.74 3.92z"/><path d="M1.862 14.083v.533h2.695c1.535 0 2.82-.315 3.855-.945 1.035-.642 1.552-1.415 1.552-2.32 0-1.227-.955-2.35-2.865-3.37 1.91-.95 2.809-1.942 2.695-2.973 0-.516-.194-1.054-.58-1.616-.523-.733-1.228-1.1-2.115-1.1H1.862v.688c.273-.092.631-.138 1.075-.138v11.241H1.862zm2.831-.137L4.83 2.98a4.89 4.89 0 0 1 .41-.017c.568 0 1.08.12 1.535.36.523.298.858.722 1.006 1.272.091.321.136.625.136.911 0 .665-.244 1.244-.733 1.736-.262.264-.7.573-1.314.929-.454.275-.67.48-.648.618 0 .104.376.333 1.126.688.808.367 1.285.728 1.433 1.083.216.504.324.945.324 1.323 0 .676-.375 1.175-1.126 1.496-.227.091-.99.28-2.286.567zm9.26-10.829c-1.934.928-2.832 3.14-2.696 6.635.068 1.787.853 3.134 2.354 4.04 1.103.675 2.331 1.013 3.685 1.013.261 0 .489-.017.682-.051 2.308-.436 3.832-1.02 4.571-1.753 1.149-1.146 1.723-2.665 1.723-4.555 0-1.593-.415-2.991-1.245-4.194-.91-1.307-2.098-2.046-3.565-2.218A4.54 4.54 0 0 0 18.865 2c-.773 0-1.586.086-2.44.258-1.023.206-1.847.493-2.473.86zm4.025-.412c1.433.458 2.53 1.209 3.292 2.251.728 1.009 1.092 2.206 1.092 3.593 0 .39-.029.79-.085 1.203-.24 1.616-.984 2.802-2.235 3.558-1.206.722-2.462.82-3.77.292-1.433-.584-2.473-1.782-3.121-3.592a4.444 4.444 0 0 1-.256-1.496c0-1.352.517-2.607 1.552-3.764 1.023-1.123 2.2-1.805 3.53-2.045zm9.47 1.22c-.728.516-1.285 1.26-1.672 2.235-.341.859-.512 1.81-.512 2.853 0 1.283.233 2.337.7 3.162 1.023 1.822 2.558 2.733 4.605 2.733 1.24 0 2.542-.32 3.906-.962 1.138-.55 1.797-1.003 1.98-1.358l-.547-.413c-.34.447-.892.826-1.654 1.135a6.688 6.688 0 0 1-2.49.481c-1.036 0-1.917-.246-2.645-.739-.853-.584-1.41-1.46-1.671-2.63a9.061 9.061 0 0 1-.24-2.01c0-1.628.467-2.94 1.4-3.937.886-.951 1.984-1.427 3.292-1.427 1.285 0 2.49.47 3.616 1.41l1.075-1.083c-.273-.263-.723-.533-1.348-.808-.625-.286-1.075-.418-1.348-.395a17.926 17.926 0 0 0-4.179.808c-1.114.355-1.87.67-2.268.945zm18.919-.55c.296-.286.517-.647.665-1.083l-.136-.12c-1.024.298-2.843.447-5.459.447-2.99 0-4.526-.15-4.605-.447-.08.24-.302.556-.666.945.887.172 2.406.258 4.555.258 0 .252.017 1.238.05 2.956.046 1.72.07 3.14.07 4.263 0 1.673-.04 3.014-.12 4.022.398-.069.71-.103.938-.103.227 0 .54.034.938.103 0-1.214.023-3.048.068-5.5.046-2.464.069-4.331.069-5.603.398 0 .989-.023 1.774-.07a33.714 33.714 0 0 1 1.859-.068zm3.767-.258c-1.934.928-2.832 3.14-2.696 6.635.069 1.787.853 3.134 2.354 4.04 1.103.675 2.332 1.013 3.685 1.013.262 0 .489-.017.682-.051 2.309-.436 3.833-1.02 4.572-1.753 1.148-1.146 1.723-2.665 1.723-4.555 0-1.593-.415-2.991-1.245-4.194-.91-1.307-2.099-2.046-3.566-2.218A4.54 4.54 0 0 0 55.046 2c-.773 0-1.586.086-2.439.258-1.023.206-1.848.493-2.473.86zm4.025-.412c1.433.458 2.53 1.209 3.293 2.251.727 1.009 1.091 2.206 1.091 3.593 0 .39-.028.79-.085 1.203-.239 1.616-.984 2.802-2.235 3.558-1.205.722-2.462.82-3.77.292-1.432-.584-2.473-1.782-3.121-3.592a4.444 4.444 0 0 1-.256-1.496c0-1.352.517-2.607 1.552-3.764 1.024-1.123 2.2-1.805 3.531-2.045zm18.05-.67l-2.013.257c-.17 1.352-.256 5.506-.256 12.462l2.013-.275a25.378 25.378 0 0 1-.085-2.27c0-1.11.057-2.858.17-5.242.114-2.394.171-4.039.171-4.933zM63.441 2c-.011 0-.347.086-1.006.258-.41.103-.75.155-1.024.155.103 1.455.228 2.435.376 2.939.125.962.438 1.92.938 2.87.341.722.904 1.375 1.689 1.96.898.676 1.814 1.014 2.746 1.014 1.876 0 3.264-.676 4.162-2.028.228-.253.444-.556.648-.911l-1.108-.825c-.364 1.145-.706 1.856-1.024 2.13-.33.287-.847.43-1.552.43-1.32 0-2.314-.378-2.985-1.134-.671-.768-1.132-1.501-1.382-2.2-.239-.699-.387-1.49-.444-2.372A19.88 19.88 0 0 1 63.441 2zm12.605.292l-2.013.138c.17.756.256 2.028.256 3.816 0 2.383-.131 5.219-.393 8.508l2.013-.275.137-5.415 1.637.035c1.103.023 2.064.034 2.883.034 2.638 0 4.043-.114 4.213-.344v5.965l2.013-.138a107.56 107.56 0 0 1-.136-5.655c0-2.693.09-4.916.273-6.669h-1.894c-.022.355-.011.934.034 1.736.046.951.069 1.593.069 1.925 0 1.65-.347 2.418-1.04 2.304h-8.052V2.292zm20.41 0a3.034 3.034 0 0 1-.733.103c-.228 0-.477-.034-.75-.103-.865 1.81-2.024 3.879-3.48 6.205-.16.24-1.462 2.235-3.906 5.982l.136.137h1.484c.614-.94 1.461-2.337 2.542-4.194l.614-1.1c.204-.263.54-.395 1.007-.395.465.057.966.086 1.5.086.853 0 1.65-.075 2.388-.224.478.803 1.007 1.84 1.587 3.111a195.55 195.55 0 0 0 1.364 2.991 45.07 45.07 0 0 1 1.894-.412l-3.276-6.704c-1.307-2.67-2.097-4.497-2.37-5.483zm.495 5.827c-.25.172-1.091.258-2.524.258-.933 0-1.399-.069-1.399-.206 0-.012.011-.029.034-.052l2.15-3.919 1.74 3.919zm12.961.67c-1.183-.034-2.189-.48-3.019-1.34-.41-.527-.614-1.077-.614-1.65 0-.768.335-1.438 1.006-2.011.66-.436 1.575-.648 2.746-.636.182 5.11.274 8.886.274 11.327.273.091.943.137 2.012.137-.216-2.429-.324-5.322-.324-8.68a66.2 66.2 0 0 1 .052-2.802l.955-.017V2.43c-.808-.092-1.78-.11-2.917-.052-1.126.057-1.899.166-2.32.327-.637.229-1.109.458-1.416.687a5.12 5.12 0 0 0-1.297 1.478c-.397.665-.596 1.307-.596 1.926 0 1.065.585 1.873 1.757 2.423.307.15.955.246 1.944.292-.955.997-2.923 2.43-5.901 4.297.193.195.465.43.818.705.364.275.58.447.649.516 2.444-1.891 4.48-3.719 6.106-5.483l.085-.757zm-94.49 24.687c-1.341-2.67-3.252-6.434-5.73-11.292l-1.877.412c.114.527.17.825.17.894 0 .092-.016.155-.05.19a879.046 879.046 0 0 0-5.92 10.003l-.409-.018c-.512.07-.7 1.163-.563 3.283l1.16.052a5.4 5.4 0 0 0 .051-.756c0-.837.097-1.26.29-1.272.148-.012.347-.023.597-.035.262-.011 3.503-.023 9.723-.034 1.33 0 2.104-.006 2.32-.017.102 0 .154.35.154 1.048v1.014h.972c.33-1.375.489-2.177.478-2.406-.012-.23-.018-.39-.018-.481 0-.378-.449-.573-1.347-.585zm-11.7.19a71.16 71.16 0 0 1 2.507-5.002c1.24-2.235 2.08-3.673 2.524-4.315l4.418 9.162-9.45.154zm16.677-10.262c-1.933.928-2.832 3.14-2.695 6.635.068 1.787.853 3.134 2.354 4.039 1.103.676 2.331 1.014 3.684 1.014.262 0 .49-.017.683-.051 2.308-.436 3.832-1.02 4.571-1.754 1.149-1.146 1.723-2.664 1.723-4.555 0-1.592-.415-2.99-1.245-4.194-.91-1.306-2.098-2.045-3.565-2.217a4.561 4.561 0 0 0-.597-.034c-.774 0-1.587.086-2.44.258-1.023.206-1.848.492-2.473.859zm4.026-.413c1.433.459 2.53 1.21 3.292 2.252.728 1.009 1.091 2.206 1.091 3.593 0 .39-.028.79-.085 1.203-.239 1.615-.983 2.801-2.234 3.558-1.206.722-2.462.819-3.77.292-1.433-.585-2.474-1.782-3.122-3.593a4.443 4.443 0 0 1-.256-1.495c0-1.352.518-2.607 1.553-3.764 1.023-1.123 2.2-1.805 3.53-2.046zm21.052 11.38c-1.342-2.705-3.4-6.767-6.175-12.187l-1.877.412c.114.527.17.825.17.894 0 .092-.016.155-.05.19-1.479 2.44-3.668 6.135-6.568 11.086l.12.275 1.62-.533c.933-1.81 1.973-3.759 3.122-5.844 1.24-2.235 2.08-3.673 2.524-4.315l5.1 10.554 2.014-.533zm12.337.395c.25.045.506.097.767.154.262.057.5.143.717.258-.216-3.45-.325-6.543-.325-9.282 0-1.157.018-2.303.052-3.437-.273 0-.762-.092-1.467-.275-1.047 1.34-2.559 3.036-4.538 5.087-.34.356-2.052 2.086-5.134 5.191.034-.756.063-2.383.085-4.881.023-2.074.08-3.696.17-4.865-.522 0-1.057-.131-1.603-.395-.011.436-.017.945-.017 1.53 0 .71.017 1.833.051 3.369.034 1.535.052 2.641.052 3.317 0 2.005-.12 3.191-.359 3.558.671.447 1.166.762 1.484.946.353-.356 1.439-1.439 3.258-3.25a434.09 434.09 0 0 0 3.259-3.282 174.747 174.747 0 0 0 3.155-3.352l.24 4.847c.101 1.925.153 3.512.153 4.762zm5.438-12.187l-2.013.137c.171.757.256 2.029.256 3.816 0 2.384-.13 5.22-.392 8.509l2.013-.275.136-5.415 1.638.035c1.103.023 2.064.034 2.883.034 2.638 0 4.042-.115 4.213-.344v5.965l2.013-.138a107.559 107.559 0 0 1-.137-5.655c0-2.693.091-4.916.273-6.669h-1.893c-.023.355-.011.934.034 1.736.045.951.068 1.593.068 1.925 0 1.65-.347 2.418-1.04 2.303h-8.052V22.58zm20.411 0a3.035 3.035 0 0 1-.733.103 3.09 3.09 0 0 1-.75-.103c-.865 1.81-2.025 3.879-3.48 6.205-.16.24-1.462 2.234-3.907 5.982l.136.137h1.484c.615-.94 1.462-2.338 2.542-4.194l.614-1.1c.205-.264.54-.395 1.007-.395.466.057.966.086 1.5.086.854 0 1.65-.075 2.389-.224.477.802 1.006 1.84 1.586 3.111a177.981 177.981 0 0 0 1.365 2.991c.41-.103 1.04-.24 1.893-.412l-3.275-6.704c-1.308-2.67-2.098-4.498-2.37-5.483zm.495 5.827c-.25.172-1.092.258-2.525.258-.932 0-1.398-.07-1.398-.207 0-.011.01-.028.034-.051l2.149-3.92 1.74 3.92z" mask="url(#ara)"/></symbol><symbol viewBox="0 0 22 22" id="meat" xmlns="http://www.w3.org/2000/svg"><path d="M17.167 5.788l-.025.024.017.03c1.358 2.39 1.108 5.086-.659 6.295-1.45.993-3.528.716-5.26-.545l-.03-.022-.028.026-1.523 1.479-.033.031.032.032 3.121 3.208-4.697 5.128-2.884-3.998-.03-.042-.038.036-3.783 3.67-1.171-1.136 3.998-3.88.028-.028-.022-.032-3.154-4.372 3.11-4.227 4.321 4.44.031.032.033-.032 1.463-1.42.03-.03-.027-.031a7.583 7.583 0 0 1-.35-.447C8.714 8.71 8.28 7.293 8.318 6.026c.04-1.266.552-2.38 1.524-3.045 1.755-1.201 4.432-.543 6.295 1.467l.031.034.033-.032 4.45-4.319 1.172 1.137-4.657 4.52zM3.075 11.675l-.02.026.02.027 5.13 7.112.032.045.037-.041 2.23-2.434.028-.031-.03-.03-6.15-6.321-.037-.038-.032.043-1.208 1.642zm10.284-5.493c0 .677-.566 1.228-1.266 1.228-.701 0-1.267-.551-1.267-1.228 0-.676.566-1.227 1.267-1.227.7 0 1.266.55 1.266 1.227zM8.114 15.09c0 .442-.37.803-.829.803-.46 0-.83-.36-.83-.803 0-.443.37-.804.83-.804.46 0 .83.361.83.804zm8.252-6.046c.027-.887-.281-1.968-1.015-2.978-.734-1.01-1.68-1.655-2.55-1.927-.868-.272-1.55-.154-2.001.155-.45.308-.796.893-.823 1.78-.027.887.281 1.968 1.015 2.978.734 1.01 1.68 1.655 2.55 1.928.868.272 1.55.153 2.001-.155.451-.309.796-.894.823-1.78z"/></symbol><symbol viewBox="0 0 23 21" id="napitok" xmlns="http://www.w3.org/2000/svg"><path fill-rule="evenodd" clip-rule="evenodd" d="M.356.6h11.446l-.894 9.632a6.509 6.509 0 0 1 1.126-.925l.131-.772c.454-2.665 1.385-4.474 2.732-5.605 1.353-1.136 2.995-1.48 4.633-1.48h1.058l-.207 1.017c-.453 2.22-1.267 3.993-2.515 5.215-.272.267-.56.503-.866.71 2.934.619 5.133 3.174 5.133 6.233 0 3.52-2.914 6.375-6.508 6.375a6.538 6.538 0 0 1-5.448-2.886L9.909 21h-7.66L.356.6zm1.9 1.7l1.578 17h4.49L9.9 2.3H2.256zm13.369 17c2.636 0 4.773-2.093 4.773-4.675S18.26 9.95 15.625 9.95c-2.636 0-4.773 2.093-4.773 4.675s2.137 4.675 4.773 4.675zm1.013-12.82c-.676.663-1.51 1.09-2.537 1.26.447-1.78 1.142-2.861 1.926-3.52.668-.56 1.467-.869 2.385-.997-.423 1.458-1.027 2.526-1.774 3.257z"/></symbol><symbol viewBox="0 0 92 92" id="ok" xmlns="http://www.w3.org/2000/svg"><g clip-path="url(#auclip0)"><path d="M46 92c25.363 0 46-20.635 46-46a45.6 45.6 0 0 0-1.821-12.824 3.83 3.83 0 0 0-4.755-2.603 3.832 3.832 0 0 0-2.603 4.755A38.065 38.065 0 0 1 84.333 46c0 21.137-17.196 38.333-38.333 38.333C24.863 84.333 7.667 67.137 7.667 46 7.667 24.863 24.863 7.667 46 7.667c7.682 0 15.072 2.246 21.373 6.494a3.833 3.833 0 0 0 4.286-6.357C64.088 2.7 55.215 0 46 0 20.637 0 0 20.635 0 46s20.637 46 46 46z"/><path d="M85.457 8.788L46 48.243 33.377 35.622a3.833 3.833 0 0 0-5.42 5.42L43.29 56.376A3.817 3.817 0 0 0 46 57.499a3.82 3.82 0 0 0 2.71-1.123l42.167-42.167a3.834 3.834 0 0 0-5.42-5.42z"/></g><defs><clipPath id="auclip0"><path d="M0 0h92v92H0z"/></clipPath></defs></symbol><symbol viewBox="0 0 59 59" id="order" xmlns="http://www.w3.org/2000/svg"><path d="M52.547 5.531H24.891a4.615 4.615 0 0 0-4.61 4.61v13.396l-5.2 4.333a.921.921 0 0 0 .591 1.63h4.61v6.453a4.614 4.614 0 0 0 4.609 4.61h27.656a4.614 4.614 0 0 0 4.61-4.61V10.141a4.615 4.615 0 0 0-4.61-4.61zm2.766 30.422a2.769 2.769 0 0 1-2.766 2.766H24.891a2.77 2.77 0 0 1-2.766-2.766v-7.375a.921.921 0 0 0-.922-.922H18.22l3.575-2.979a.922.922 0 0 0 .331-.708V10.14a2.769 2.769 0 0 1 2.766-2.766h27.656a2.769 2.769 0 0 1 2.766 2.766v25.812z"/><path d="M9.219 46.041v1.897a4.614 4.614 0 0 0 4.61 4.609h.921a2.769 2.769 0 0 1 2.766 2.766v.921a.922.922 0 0 0 1.843 0v-.922a4.615 4.615 0 0 0-4.609-4.609h-.922a2.769 2.769 0 0 1-2.765-2.766v-1.843h2.765a2.769 2.769 0 0 0 2.766-2.766v-5.531a2.769 2.769 0 0 0-2.766-2.766h-4.61v-14.75h4.61a2.768 2.768 0 0 0 2.766-2.765v-5.532a2.769 2.769 0 0 0-2.766-2.765h-3.687a8.306 8.306 0 0 0-8.297 8.297v20.28a8.308 8.308 0 0 0 7.375 8.245zm5.531-8.244v5.531a.923.923 0 0 1-.922.922h-.922v-7.375h.922a.923.923 0 0 1 .922.922zm0-25.813v5.532a.923.923 0 0 1-.922.922h-.922v-7.375h.922a.923.923 0 0 1 .922.921zM3.687 17.516a6.46 6.46 0 0 1 6.454-6.453h.921v7.374H8.297a.922.922 0 0 0-.922.922v16.594a.922.922 0 0 0 .922.922h2.765v7.375h-.921a6.46 6.46 0 0 1-6.454-6.453V17.516zm43.329 6.407V12.906a.922.922 0 0 0-.922-.922c-5.63 0-6.42 9.66-6.45 10.072a.922.922 0 0 0 .506.893l1.334.668v.306l-.714 7.146a2.766 2.766 0 0 0 2.752 3.04h1.456a2.766 2.766 0 0 0 2.752-3.04l-.714-7.146zm-4.62-6.141c.709-2.085 1.64-3.353 2.776-3.786v9.05h-1.844a.922.922 0 0 0-.51-.824l-1.27-.635a20.3 20.3 0 0 1 .848-3.805zm3.266 14.18a.911.911 0 0 1-.684.304h-1.456a.922.922 0 0 1-.918-1.014l.637-6.361h2.019l.636 6.36a.912.912 0 0 1-.234.711zm-6.943-19.056a.922.922 0 0 0-1.844 0v2.766h-1.844v-2.766a.922.922 0 0 0-1.843 0v2.766h-1.844v-2.766a.922.922 0 0 0-1.844 0v3.688h.002a.92.92 0 0 0 .095.412l1.731 3.462-.763 10.679a2.766 2.766 0 0 0 2.759 2.962h1.57a2.766 2.766 0 0 0 2.76-2.962l-.763-10.68 1.73-3.46a.92.92 0 0 0 .096-.413h.002v-3.688zm-2.414 4.61l-.922 1.843h-2.548l-.922-1.843h4.392zm-.735 14.456a.911.911 0 0 1-.675.294h-1.571a.92.92 0 0 1-.92-.988l.72-10.075h1.97l.72 10.075a.915.915 0 0 1-.244.694z"/></symbol><symbol viewBox="0 0 28 27" id="pica" xmlns="http://www.w3.org/2000/svg"><path d="M27.31 6.17a.628.628 0 0 0-.031-.143.776.776 0 0 0-.159-.27c-.018-.021-.026-.047-.048-.068C19.744-1.04 8.26-1.04.932 5.69c-.024.021-.032.047-.05.068a.772.772 0 0 0-.112.87c.011.023.013.049.028.071L13.294 25.98a.84.84 0 0 0 .707.378.84.84 0 0 0 .706-.378l4.889-7.543.002-.004v-.001l7.604-11.734c.015-.023.017-.048.028-.073a.683.683 0 0 0 .06-.155.715.715 0 0 0 .02-.3zM11.017 19.433L9.315 16.81a1.72 1.72 0 0 1 .52-.094c.92 0 1.666.722 1.666 1.607 0 .43-.188.818-.484 1.11zm7.573-2.476a1.528 1.528 0 0 1-.424-1.044c0-.885.747-1.607 1.666-1.607.154 0 .292.036.43.073l-1.672 2.578zm2.576-3.975a3.306 3.306 0 0 0-1.334-.282c-1.837 0-3.332 1.44-3.332 3.213 0 .96.445 1.848 1.181 2.447l-3.68 5.678-2.081-3.21a3.148 3.148 0 0 0 1.248-2.505c0-1.772-1.495-3.213-3.333-3.213-.498 0-.974.119-1.413.32L4.49 9.36C6.978 6.89 10.402 5.47 14 5.47s7.023 1.42 9.512 3.89l-2.348 3.622zm3.254-5.02c-2.775-2.608-6.507-4.1-10.42-4.1-3.911 0-7.644 1.492-10.418 4.1L2.59 6.43C9.117.88 18.884.88 25.413 6.43l-.993 1.531z"/><path d="M12.293 7.071c-1.883 0-3.415 1.442-3.415 3.215 0 1.772 1.531 3.214 3.415 3.214 1.883 0 3.414-1.442 3.414-3.214 0-1.773-1.531-3.215-3.414-3.215zm0 4.822c-.943 0-1.708-.722-1.708-1.607 0-.886.765-1.608 1.708-1.608.942 0 1.707.722 1.707 1.608 0 .885-.765 1.607-1.707 1.607z"/></symbol><symbol viewBox="0 0 23 23" id="rupor" xmlns="http://www.w3.org/2000/svg"><path d="M.567 10.062l-.011.028.01.019a4.829 4.829 0 0 0 2.386 4.124l.018.038.038-.005c.563.324 1.198.54 1.874.617l2.03 7.048a.744.744 0 0 0 .716.535h3.265c.231 0 .45-.106.59-.288a.732.732 0 0 0 .13-.64l-.097.026.096-.026-1.66-6.142 4.622 1.788v.226c0 1.223 1.005 2.216 2.239 2.216 1.233 0 2.238-.993 2.238-2.216v-3.162c2.106-.351 3.716-2.168 3.716-4.352s-1.61-4-3.716-4.352V2.75c0-1.223-1.005-2.216-2.238-2.216-1.234 0-2.24.993-2.24 2.216v.226l-5.86 2.267h-3.26A4.9 4.9 0 0 0 1.82 6.848l-.023.002-.015.041a4.787 4.787 0 0 0-1.215 3.17zM9.534 6.51l5.04-1.95V15.6l-5.04-1.95-.01-.005-.011-.002-1.29-.202-.007-.001H6.184l-1.276-.045-.663-.175a3.407 3.407 0 0 1-1.743-1.477l-.363-.921a3.322 3.322 0 0 1-.083-.743c0-1.666 1.233-3.054 2.847-3.315l1.28-.045h2.033l.008-.001 1.289-.203.01-.001.01-.004zm.39 14.48H8.188L6.44 14.916h1.841l1.642 6.075zm7.638-3.581c0 .407-.335.74-.75.74a.746.746 0 0 1-.749-.74V2.75c0-.406.335-.74.75-.74.414 0 .75.334.75.74v14.66zm3.716-7.514c0 1.365-.947 2.517-2.227 2.845V7.05c1.28.328 2.227 1.48 2.227 2.845z"/></symbol><symbol viewBox="0 0 24 25" id="salat" xmlns="http://www.w3.org/2000/svg"><path d="M23.204 10.195h-1.008a4.779 4.779 0 0 0 .261-1.536c0-2.416-1.815-4.403-4.115-4.595a4.394 4.394 0 0 0-3.354-1.552 4.395 4.395 0 0 0-3.354 1.552c-1.008.085-1.912.527-2.622 1.186V1.744a.758.758 0 0 0-.747-.768c-2.182 0-4.098 1.418-4.858 3.432-.009 0-.018-.006-.027-.006-.227.037-.39.083-.53.23-1.452 1.507-1.669 3.8-.686 5.563H.796a.758.758 0 0 0-.747.768c0 4.705 2.98 8.933 7.47 10.684v1.61c0 .423.334.767.746.767h7.47a.758.758 0 0 0 .747-.768v-1.609c4.489-1.751 7.47-5.98 7.47-10.684a.758.758 0 0 0-.748-.768zM12 5.585a.736.736 0 0 0 .596-.305c1.146-1.565 3.638-1.565 4.782 0a.74.74 0 0 0 .598.305c1.647 0 2.987 1.379 2.987 3.074 0 .548-.174 1.07-.44 1.536h-3.294l1.195-.922a.782.782 0 0 0 .15-1.075.732.732 0 0 0-1.047-.156l-1.792 1.383V7.89a.758.758 0 0 0-.747-.767.758.758 0 0 0-.747.768v1.537l-1.793-1.383a.736.736 0 0 0-1.046.154c-.248.34-.18.82.15 1.075l1.195.922H9.453c-.266-.465-.44-.988-.44-1.536 0-1.695 1.34-3.074 2.987-3.074zM7.518 2.591v5.75l-2.856-2.94c.344-1.42 1.467-2.518 2.856-2.811zM3.45 6.329l3.759 3.866H4.055c-.047-.041-.097-.077-.144-.126-.975-1.013-1.128-2.558-.46-3.74zM15.5 20.375a.767.767 0 0 0-.512.73v1.383H9.012v-1.383a.769.769 0 0 0-.512-.73c-3.907-1.326-6.61-4.74-6.926-8.643h20.852c-.315 3.903-3.02 7.317-6.926 8.643z"/></symbol><symbol viewBox="0 0 28 27" id="shaurma" xmlns="http://www.w3.org/2000/svg"><path d="M26.452 15.146H1.548c-.458 0-.83.354-.83.79v3.162c0 2.18 1.861 3.95 4.15 3.95h13.283c2.005 0 3.68-1.358 4.066-3.16h4.235c.458 0 .83-.354.83-.79v-3.161c0-.436-.372-.79-.83-.79zm-5.811 3.952c0 1.307-1.117 2.37-2.49 2.37H4.869c-1.373 0-2.49-1.063-2.49-2.37v-2.371H20.64v2.37zm4.98-.79h-3.32v-1.581h3.32v1.58zm-8.125-10.15c-.475-.973-.177-1.41-.13-1.47.278-.303.3-.81.042-1.143-.264-.34-.72-.37-1.012-.069-.05.051-1.225 1.29-.149 3.489.486.992.166 1.425.15 1.45a.911.911 0 0 0-.061 1.162.679.679 0 0 0 .536.277c.169 0 .34-.07.475-.207.05-.052 1.225-1.29.15-3.489zM11.753 6.84c-.476-.973-.178-1.41-.13-1.47a.914.914 0 0 0 .041-1.143c-.264-.34-.718-.369-1.011-.069-.05.051-1.225 1.29-.15 3.489.486.993.167 1.426.15 1.45a.911.911 0 0 0-.06 1.163.679.679 0 0 0 .535.277c.17 0 .34-.07.476-.208.05-.051 1.225-1.29.149-3.489zM6.01 8.158c-.476-.973-.178-1.41-.131-1.47.278-.303.3-.81.041-1.143-.265-.34-.719-.37-1.011-.069-.05.051-1.225 1.29-.149 3.489.486.992.166 1.425.149 1.45a.911.911 0 0 0-.06 1.162.679.679 0 0 0 .536.277c.169 0 .34-.07.475-.207.05-.052 1.225-1.29.15-3.489z"/></symbol><symbol viewBox="0 0 26 23" id="soup" xmlns="http://www.w3.org/2000/svg"><path d="M24.294 9.216h-1.08c-1.697-3.085-4.599-5.186-7.955-5.847V.839a.758.758 0 0 0-.753-.762h-3.012a.758.758 0 0 0-.753.762v2.53c-3.356.66-6.258 2.762-7.955 5.847h-1.08a.758.758 0 0 0-.753.761c0 .42.338.762.753.762h.753v8.377c0 2.1 1.688 3.807 3.765 3.807h13.552c2.077 0 3.765-1.707 3.765-3.807v-8.377h.753a.758.758 0 0 0 .753-.762.758.758 0 0 0-.753-.761zM12.247 1.6h1.506v1.577c-.252-.017-.498-.054-.753-.054s-.501.037-.753.054V1.6zM13 4.646c3.447 0 6.583 1.728 8.466 4.57H4.534c1.883-2.842 5.02-4.57 8.466-4.57zm9.035 14.47c0 1.26-1.014 2.284-2.259 2.284H6.224c-1.245 0-2.259-1.025-2.259-2.284v-8.377h18.07v8.377z"/></symbol><symbol viewBox="0 0 24 25" id="sous" xmlns="http://www.w3.org/2000/svg"><path d="M23.428.804a.779.779 0 0 0-.572-.547.822.822 0 0 0-.78.213c-.012.014-1.363 1.33-5.877 2.996-1.583.58-2.735 1.686-3.241 3.11-.416 1.163-.577 3.084 1.011 5.615.018.03.058.039.079.065-1.08 2.375-1.763 4.816-2.176 6.855C8.272 3.567 1.488.431 1.176.295A.814.814 0 0 0 .119.677.756.756 0 0 0 .516 1.69c.076.034 7.661 3.549 10.714 22.433a.79.79 0 0 0 .787.649c.016 0 .03 0 .045-.002a.783.783 0 0 0 .752-.732c.003-.078.3-5.93 2.736-11.261.327.047.688.086 1.11.086 1.81 0 4.35-.631 6.362-3.575.014-.023.028-.045.041-.07 1.721-3.206.42-8.205.365-8.415zM21.666 8.48c-1.793 2.6-4.011 2.947-5.397 2.855C17 10.002 17.88 8.741 18.95 7.66a.747.747 0 0 0-.03-1.084.821.821 0 0 0-1.126.027c-1.165 1.179-2.108 2.543-2.898 3.968-.623-1.286-.792-2.486-.432-3.495.352-.988 1.17-1.76 2.302-2.179 2.744-1.012 4.405-1.91 5.36-2.527.257 1.547.508 4.269-.461 6.111z"/></symbol><symbol viewBox="0 0 26 25" id="union" xmlns="http://www.w3.org/2000/svg"><path d="M11.84 6.928h2.32v6.686h-2.32V6.928zm0 8.915h2.32v2.23h-2.32v-2.23z"/><path fill-rule="evenodd" clip-rule="evenodd" d="M16.942.84l2.206 3.527 4.172.927-.372 4.1 2.808 3.106-2.808 3.106.372 4.1-4.172.927-2.206 3.526L13 22.552 9.058 24.16l-2.206-3.526-4.171-.927.371-4.1L.244 12.5l2.808-3.106-.371-4.1 4.171-.927L9.058.841 13 2.447 16.942.841zm-.68 2.009l1.827 2.919 3.453.767-.308 3.394 2.324 2.57-2.324 2.572.308 3.394-3.453.767-1.826 2.919L13 20.821l-3.263 1.33-1.826-2.92-3.453-.766.307-3.394L2.441 12.5l2.324-2.571-.307-3.394 3.453-.767 1.826-2.92L13 4.179l3.263-1.33z"/></symbol></svg>