<?xml version="1.0" encoding="utf-8"?><svg xmlns="http://www.w3.org/2000/svg" xmlns:xlink="http://www.w3.org/1999/xlink"><symbol viewBox="0 0 28 15" id="arrow" xmlns="http://www.w3.org/2000/svg"><path d="M.367 6.644v-.001L6.9.353a1.28 1.28 0 0 1 1.768.003c.487.474.485 1.24-.004 1.711L4.278 6.29H26.75c.69 0 1.25.542 1.25 1.21 0 .668-.56 1.21-1.25 1.21H4.278l4.385 4.223a1.18 1.18 0 0 1 .004 1.71 1.28 1.28 0 0 1-1.768.005L.368 8.358l-.001-.002a1.183 1.183 0 0 1 0-1.712z"/></symbol><symbol viewBox="0 0 41 34" id="basket" xmlns="http://www.w3.org/2000/svg"><path d="M5.854 3.019l.073.287 4.531 17.85c.34 1.337 1.559 2.263 2.974 2.263h19.8a3.01 3.01 0 0 0 2.922-2.218L40.5 5.48H12.574l.67 2.638h23.779l-.134.483-3.29 11.9-.077.28H13.136l-.073-.288L8.53 2.644l-2.677.375zm0 0h-.297m.297 0h-.297m0 0h-3.83c-.36 0-.702-.14-.954-.389a1.306 1.306 0 0 1-.392-.93c0-.348.14-.683.392-.93a1.36 1.36 0 0 1 .953-.389H5.56M5.557 3.02L5.559.38m0 0h.002m-.002 0h.002m0 0a3.076 3.076 0 0 1 1.885.628c.538.411.92.987 1.085 1.635L5.561.38zM10.74 28.9c0-2.58 2.163-4.719 4.798-4.719 2.635 0 4.797 2.139 4.797 4.719 0 2.58-2.162 4.719-4.797 4.719S10.74 31.48 10.74 28.9zm15.537 0c0-2.58 2.163-4.719 4.798-4.719 2.634 0 4.797 2.139 4.797 4.719 0 2.58-2.163 4.719-4.797 4.719-2.635 0-4.798-2.139-4.798-4.719zm-8.631 0c0-1.175-.93-2.081-2.108-2.081-1.179 0-2.108.906-2.108 2.081 0 1.175.93 2.081 2.108 2.081 1.179 0 2.108-.906 2.108-2.081zm15.536 0c0-1.175-.929-2.081-2.107-2.081-1.18 0-2.108.906-2.108 2.081 0 1.175.929 2.081 2.108 2.081 1.178 0 2.107-.906 2.107-2.081z"/></symbol><symbol viewBox="0 0 33 32" id="ic1" xmlns="http://www.w3.org/2000/svg"><path fill-rule="evenodd" clip-rule="evenodd" d="M27.404 1.933L25.426 0l-7.155 6.99-.102.199c-.324.635-.631 1.641-.601 2.765.02.795.213 1.671.703 2.503l-1.648 1.61L2.417.187 1.47 1.576C.91 2.395.253 3.755.057 5.271c-.2 1.547.076 3.385 1.588 4.862l9.502 9.284-10.9 10.65L2.224 32l10.9-10.65 2.798 2.733 3.498-3.417L31.02 32 33 30.067 18.602 16l1.647-1.61a5.497 5.497 0 0 0 2.563.687c1.15.03 2.18-.27 2.83-.588l.203-.1L33 7.4l-1.978-1.932-6.812 6.655a3.615 3.615 0 0 1-1.326.223 2.976 2.976 0 0 1-.488-.052l7.806-7.627-1.978-1.933-7.807 7.627a2.788 2.788 0 0 1-.053-.477 3.39 3.39 0 0 1 .229-1.295l6.811-6.655zM3.046 4.669l14.396 14.064-1.519 1.484L3.623 8.2c-.726-.71-.917-1.605-.79-2.587a5.51 5.51 0 0 1 .213-.944z"/></symbol><symbol viewBox="0 0 39 41" id="ic2" xmlns="http://www.w3.org/2000/svg"><path d="M36.844 23H2.156C1.518 23 1 23.538 1 24.2V29c0 3.31 2.592 6 5.781 6h18.5c2.794 0 5.127-2.064 5.664-4.8h5.899c.638 0 1.156-.538 1.156-1.2v-4.8c0-.662-.518-1.2-1.156-1.2zm-8.094 6c0 1.985-1.556 3.6-3.469 3.6h-18.5c-1.912 0-3.468-1.615-3.468-3.6v-3.6H28.75V29zm6.938-1.2h-4.626v-2.4h4.625v2.4zM24.37 12.388c-.663-1.478-.247-2.14-.182-2.233.388-.46.418-1.23.058-1.735-.367-.517-1.001-.562-1.409-.105-.07.078-1.706 1.958-.207 5.298.676 1.507.232 2.165.207 2.202-.41.46-.45 1.25-.083 1.765.197.278.47.42.746.42a.894.894 0 0 0 .663-.315c.07-.077 1.706-1.957.207-5.297zm-8-2.001c-.663-1.478-.247-2.143-.182-2.233.388-.46.418-1.23.058-1.735-.367-.517-1-.56-1.408-.105-.07.078-1.707 1.958-.208 5.298.676 1.508.231 2.165.207 2.203-.41.46-.45 1.25-.083 1.765.197.277.47.42.746.42a.894.894 0 0 0 .663-.315c.07-.078 1.706-1.958.207-5.298zm-8 2.001c-.662-1.478-.247-2.143-.182-2.233.388-.46.417-1.23.058-1.735-.369-.517-1.001-.562-1.408-.105-.07.078-1.707 1.958-.208 5.298.676 1.507.231 2.165.208 2.202-.412.46-.451 1.25-.084 1.765.197.278.47.42.746.42a.894.894 0 0 0 .662-.315c.07-.077 1.707-1.957.208-5.297z"/></symbol><symbol viewBox="0 0 45 45" id="ic3" xmlns="http://www.w3.org/2000/svg"><path d="M29.133 21.506a1.42 1.42 0 0 1-.392 1.964c-1.492.998-5.44 3.248-9.578 4.434a1.417 1.417 0 0 1-.776-2.724c3.773-1.082 7.453-3.176 8.787-4.067a1.41 1.41 0 0 1 1.959.393zm-3.295-5.589c0 1.565-.948 2.833-2.119 2.833-1.17 0-2.119-1.268-2.119-2.833 0-1.565.949-2.834 2.12-2.834 1.17 0 2.118 1.269 2.118 2.834zm5.729 12.512a1.42 1.42 0 0 0 .392-1.965 1.41 1.41 0 0 0-1.96-.393c-.925.619-3.091 1.632-5.672 2.703-2.535 1.052-5.329 2.102-7.412 2.799a1.417 1.417 0 0 0 .894 2.688c2.155-.72 5.012-1.795 7.598-2.869 2.541-1.054 4.966-2.165 6.16-2.963z"/><path fill-rule="evenodd" clip-rule="evenodd" d="M19.123 7.015C20.443 6.29 21.979 6 23.719 6c1.747 0 3.15.299 4.297.89 1.16.597 1.952 1.439 2.554 2.345.516.775.918 1.644 1.28 2.423l.13.279c.413.886.812 1.693 1.354 2.432.833 1.136 1.81 2.22 2.785 3.303.389.432.778.865 1.158 1.3.641.734 1.256 1.481 1.728 2.206.457.7.878 1.527.956 2.406.402 4.565-2.31 8.714-6.429 11.63C29.39 38.147 23.63 40 17.362 40h-.144c-2.367 0-5.195 0-7.348-.687-1.129-.36-2.236-.955-2.987-1.986-.773-1.063-1.025-2.389-.809-3.902.245-1.722.667-3.01 1.26-4.054.596-1.048 1.317-1.766 2.016-2.386.19-.168.379-.33.567-.49 1.114-.956 2.194-1.882 3.248-3.917.69-5.49 1.415-9.577 2.863-12.289.764-1.429 1.758-2.54 3.095-3.274zm-.604 4.612c-1.179 2.207-1.868 5.828-2.58 11.549l-.03.24-.11.218c-1.355 2.718-2.874 4.015-4.065 5.032-.18.152-.35.299-.513.442-.6.532-1.059 1.01-1.431 1.665-.375.66-.71 1.587-.919 3.052-.137.966.053 1.5.294 1.831.265.364.747.698 1.561.958 1.688.538 4.086.553 6.636.553 5.74 0 10.919-1.704 14.54-4.268 3.646-2.581 5.526-5.87 5.244-9.066-.016-.18-.133-.532-.507-1.106-.358-.551-.866-1.177-1.488-1.889-.318-.365-.669-.754-1.035-1.16-1.007-1.118-2.135-2.37-3.058-3.63-.721-.983-1.219-2.012-1.638-2.91l-.126-.272c-.378-.812-.687-1.476-1.075-2.06-.406-.61-.863-1.071-1.494-1.396-.644-.332-1.574-.577-3.006-.577-1.439 0-2.464.242-3.24.667-.76.418-1.4 1.077-1.96 2.127z"/></symbol><symbol viewBox="0 0 37 33" id="ic4" xmlns="http://www.w3.org/2000/svg"><path fill-rule="evenodd" clip-rule="evenodd" d="M28.645 22.393c1.978 0 3.58-1.583 3.58-3.536s-1.602-3.536-3.58-3.536c-1.977 0-3.58 1.583-3.58 3.536s1.602 3.536 3.58 3.536zm0-2.357c.66 0 1.194-.528 1.194-1.179 0-.65-.535-1.178-1.194-1.178-.66 0-1.194.527-1.194 1.178 0 .651.535 1.179 1.194 1.179z"/><path fill-rule="evenodd" clip-rule="evenodd" d="M25.064 0H3.581v1.179c0 1.128.326 2.72 2.036 3.968.922.672 2.194 1.203 3.931 1.536v8.638H7.161v-2.357H0V25.93h7.161v-2.36h7.387L10.055 33H37V10.607H20.727l-2.247 4.714h-1.77V6.983c3.03-.239 5.03-.946 6.33-1.919 1.686-1.26 2.024-2.835 2.024-3.885V0zM14.322 7.071c-.858 0-1.653-.028-2.387-.083v8.333h2.387v-8.25zm-7.287-3.82c-.392-.286-.644-.59-.804-.894h16.135a2.852 2.852 0 0 1-.767.829c-1.012.756-3.09 1.528-7.277 1.528-4.202 0-6.28-.728-7.287-1.463zm8.636 17.963l1.686-3.535H7.16v3.535h8.51zm-1.855 9.429l8.425-17.679h12.372v17.679H13.816zM2.387 15.32v8.25h2.387v-8.25H2.387z"/></symbol><symbol viewBox="0 0 31 37" id="ic5" xmlns="http://www.w3.org/2000/svg"><path d="M25.308 8.19a.703.703 0 1 1-1.406 0 .703.703 0 0 1 1.406 0z"/><path fill-rule="evenodd" clip-rule="evenodd" d="M18.936 6.276C17.403 5.2 16.87 4.587 16.87 3.975c0-.703 0-1.405 1.407-1.405.938 0 1.25-.625 1.563-1.25.156-.312.312-.624.547-.858.703-.703 2.812-.703 3.515.702.546 1.09 1.513.912 2.248.777.214-.039.407-.074.565-.074.703 0 1.407 2.108 1.407 2.81 0 .202-.116.345-.297.448a4.322 4.322 0 0 1 .976 2.182c.719 1.198 1.616 2.475 2.133 2.992.46.459-1.549 1.26-3.194 1.795-.423.85-.963 1.75-1.616 2.704.674 2.783 1.46 6.752.833 10.242-.345 1.917-1.131 3.788-2.679 5.227-1.168 1.086-2.69 1.851-4.595 2.246v1.676h1.407v1.406h-1.407V37h-1.406v-1.405h-2.813V37h-1.406v-1.405H12.65v-1.406h1.407v-1.831c-3.135-.993-5.495-3.514-7.178-6.273-.896-1.468-1.636-3.057-2.235-4.63A11.963 11.963 0 0 1 0 19.953l1.392-2.442a9.1 9.1 0 0 0 2.252.91 33.325 33.325 0 0 1-.82-3.683l2.777-.444A31.49 31.49 0 0 0 6.66 18.7c2.318-.132 4.658-1.012 6.72-2.398 3.736-2.514 5.988-6.296 5.609-9.343a7.24 7.24 0 0 1-.054-.683zm-1.36 23.694c2.107-2.11 2.81-7.024 2.106-7.726-.703-.703-.703-2.108 0-2.81.704-.703 2.813.702 2.813 2.107 0 .426-.129 1.045-.27 1.72-.324 1.556-.71 3.412.27 3.902.192.096.372.192.536.288.582-.803.954-1.783 1.156-2.908.555-3.091-.238-6.855-.947-9.687l-.157-.63.377-.528c1.713-2.396 2.427-4.094 2.56-5.232.065-.544-.008-.917-.127-1.182-.118-.261-.32-.507-.662-.734-.972-.648-2.223-1.16-3.015-1.158a.887.887 0 0 0-.314.045c-.032.012-.037.02-.04.024-.013.017-.19.274-.08 1.151.565 4.548-2.667 9.22-6.831 12.021-2.137 1.437-4.665 2.484-7.287 2.8.463 1.097 1 2.18 1.616 3.189 2.06 3.377 4.757 5.584 8.2 5.355l.096-.007zm-2.113 4.22v-1.502c.7.11 1.434.144 2.203.093.207-.014.41-.031.61-.052v1.46h-2.813z"/></symbol><symbol viewBox="0 0 35 35" id="ic6" xmlns="http://www.w3.org/2000/svg"><path fill-rule="evenodd" clip-rule="evenodd" d="M16.452.184L15.36 0l-.436 1.026c-1.011 2.379-2.497 4.893-3.974 6.717-.742.916-1.437 1.602-2.023 2.016-.536.378-.787.395-.827.398h-.005l.003.002c-1.206-.303-2.519.105-3.583.706-1.114.628-2.199 1.597-3.025 2.795C.66 14.862.059 16.344.004 17.99c-.055 1.666.453 3.402 1.691 5.066.719.966 1.673 1.673 2.75 2.186L7.423 35h20.389l4.299-13.005c.709-.379 1.29-.82 1.744-1.325.772-.857 1.14-1.862 1.145-2.91.004-1.013-.331-1.978-.806-2.83-.942-1.688-2.592-3.219-4.274-4.318-1.265-.826-2.705-1.51-4.045-1.786C24.732 3.814 20.878.927 16.453.184zM28.756 23.15c-.883.19-1.86.335-2.93.44-.327.175-.723.346-1.146.508v5.213h-2.82v-4.318c-.859.232-1.81.458-2.82.662v3.657h-2.82v-3.176a37.855 37.855 0 0 1-2.82.291v2.884h-2.82V26.49a20.816 20.816 0 0 1-2.886-.268l1.812 5.935h16.273l2.977-9.005zM13.135 9.54c1.433-1.77 2.834-4.059 3.9-6.323 3.223.88 5.703 3.24 6.25 7.1l.172 1.221h1.223c.833 0 2.23.496 3.706 1.46 1.447.945 2.705 2.17 3.35 3.325.318.57.445 1.05.444 1.425-.002.34-.106.669-.414 1.01-.7.777-2.514 1.678-6.503 2.028l-.36.031-.3.202c-.115.078-.465.253-1.106.49a27.92 27.92 0 0 1-2.3.72 43.559 43.559 0 0 1-6.452 1.226c-2.354.259-4.699.292-6.667-.054-1.996-.351-3.382-1.05-4.126-2.052-.878-1.18-1.162-2.287-1.13-3.265.034-.998.402-1.96.983-2.801A6.549 6.549 0 0 1 5.78 13.41c.757 1.372 1.674 2.955 3.286 4.092 2.158 1.523 5.374 2.216 10.773 1.853l-.188-2.837c-5.177.348-7.6-.38-8.968-1.346-.862-.608-1.382-1.33-1.918-2.245.667-.146 1.278-.486 1.779-.84.881-.621 1.764-1.526 2.59-2.547z"/></symbol><symbol viewBox="0 0 41 43" id="ic7" xmlns="http://www.w3.org/2000/svg"><path d="M36 16.454v-1.227C36 14.55 35.488 14 34.857 14H5.143C4.512 14 4 14.55 4 15.227v1.227c0 7.023 3.95 13.069 9.586 15.73L8.8 39.035c-.38.543-.277 1.311.229 1.718.205.168.445.246.685.246.348 0 .69-.17.915-.49l5.222-7.48c1.326.383 2.711.606 4.149.606 1.438 0 2.823-.223 4.149-.606l5.222 7.48c.224.32.567.49.915.49.237 0 .477-.078.683-.245.505-.408.608-1.176.229-1.719l-4.787-6.853C32.051 29.523 36 23.477 36 16.454zM20 31.182c-7.563 0-13.714-6.605-13.714-14.727h27.428c0 8.122-6.15 14.727-13.714 14.727zm7.37-24.794c-.663-1.478-.248-2.14-.182-2.233.387-.46.415-1.23.058-1.735-.367-.517-.997-.562-1.408-.105-.072.078-1.706 1.958-.208 5.298.675 1.507.232 2.165.208 2.202-.413.46-.45 1.25-.084 1.765.197.277.47.42.746.42a.894.894 0 0 0 .662-.315c.072-.078 1.706-1.957.208-5.297zm-6 0c-.663-1.478-.248-2.143-.182-2.233.387-.46.415-1.23.058-1.735-.365-.517-.997-.562-1.408-.105-.072.078-1.706 1.958-.208 5.298.677 1.507.232 2.165.208 2.202-.413.46-.45 1.25-.084 1.765.197.277.47.42.746.42a.894.894 0 0 0 .662-.315c.072-.078 1.706-1.957.208-5.297zm-6 0c-.662-1.478-.248-2.143-.182-2.233.387-.46.415-1.23.058-1.735-.367-.517-.997-.562-1.408-.105-.072.078-1.706 1.958-.208 5.298.676 1.507.232 2.165.208 2.202-.413.46-.45 1.25-.084 1.765.197.277.47.42.746.42a.894.894 0 0 0 .662-.315c.072-.078 1.706-1.957.208-5.297z"/></symbol><symbol viewBox="0 0 114 38" id="logo" xmlns="http://www.w3.org/2000/svg"><mask id="ja" maskUnits="userSpaceOnUse" x="0" y="0" width="114" height="38"><path d="M0 0h114v38H0z"/><path d="M1.862 14.083v.533h2.695c1.535 0 2.82-.315 3.855-.945 1.035-.642 1.552-1.415 1.552-2.32 0-1.227-.955-2.35-2.865-3.37 1.91-.95 2.809-1.942 2.695-2.973 0-.516-.194-1.054-.58-1.616-.523-.733-1.228-1.1-2.115-1.1H1.862v.688c.273-.092.631-.138 1.075-.138v11.241H1.862zm2.831-.137L4.83 2.98a4.89 4.89 0 0 1 .41-.017c.568 0 1.08.12 1.535.36.523.298.858.722 1.006 1.272.091.321.136.625.136.911 0 .665-.244 1.244-.733 1.736-.262.264-.7.573-1.314.929-.454.275-.67.48-.648.618 0 .104.376.333 1.126.688.808.367 1.285.728 1.433 1.083.216.504.324.945.324 1.323 0 .676-.375 1.175-1.126 1.496-.227.091-.99.28-2.286.567zm9.26-10.829c-1.934.928-2.832 3.14-2.696 6.635.068 1.787.853 3.134 2.354 4.04 1.103.675 2.331 1.013 3.685 1.013.261 0 .489-.017.682-.051 2.308-.436 3.832-1.02 4.571-1.753 1.149-1.146 1.723-2.665 1.723-4.555 0-1.593-.415-2.991-1.245-4.194-.91-1.307-2.098-2.046-3.565-2.218A4.54 4.54 0 0 0 18.865 2c-.773 0-1.586.086-2.44.258-1.023.206-1.847.493-2.473.86zm4.025-.412c1.433.458 2.53 1.209 3.292 2.251.728 1.009 1.092 2.206 1.092 3.593 0 .39-.029.79-.085 1.203-.24 1.616-.984 2.802-2.235 3.558-1.206.722-2.462.82-3.77.292-1.433-.584-2.473-1.782-3.121-3.592a4.444 4.444 0 0 1-.256-1.496c0-1.352.517-2.607 1.552-3.764 1.023-1.123 2.2-1.805 3.53-2.045zm9.47 1.22c-.728.516-1.285 1.26-1.672 2.235-.341.859-.512 1.81-.512 2.853 0 1.283.233 2.337.7 3.162 1.023 1.822 2.558 2.733 4.605 2.733 1.24 0 2.542-.32 3.906-.962 1.138-.55 1.797-1.003 1.98-1.358l-.547-.413c-.34.447-.892.826-1.654 1.135a6.688 6.688 0 0 1-2.49.481c-1.036 0-1.917-.246-2.645-.739-.853-.584-1.41-1.46-1.671-2.63a9.061 9.061 0 0 1-.24-2.01c0-1.628.467-2.94 1.4-3.937.886-.951 1.984-1.427 3.292-1.427 1.285 0 2.49.47 3.616 1.41l1.075-1.083c-.273-.263-.723-.533-1.348-.808-.625-.286-1.075-.418-1.348-.395a17.926 17.926 0 0 0-4.179.808c-1.114.355-1.87.67-2.268.945zm18.919-.55c.296-.286.517-.647.665-1.083l-.136-.12c-1.024.298-2.843.447-5.459.447-2.99 0-4.526-.15-4.605-.447-.08.24-.302.556-.666.945.887.172 2.406.258 4.555.258 0 .252.017 1.238.05 2.956.046 1.72.07 3.14.07 4.263 0 1.673-.04 3.014-.12 4.022.398-.069.71-.103.938-.103.227 0 .54.034.938.103 0-1.214.023-3.048.068-5.5.046-2.464.069-4.331.069-5.603.398 0 .989-.023 1.774-.07a33.714 33.714 0 0 1 1.859-.068zm3.767-.258c-1.934.928-2.832 3.14-2.696 6.635.069 1.787.853 3.134 2.354 4.04 1.103.675 2.332 1.013 3.685 1.013.262 0 .489-.017.682-.051 2.309-.436 3.833-1.02 4.572-1.753 1.148-1.146 1.723-2.665 1.723-4.555 0-1.593-.415-2.991-1.245-4.194-.91-1.307-2.099-2.046-3.566-2.218A4.54 4.54 0 0 0 55.046 2c-.773 0-1.586.086-2.439.258-1.023.206-1.848.493-2.473.86zm4.025-.412c1.433.458 2.53 1.209 3.293 2.251.727 1.009 1.091 2.206 1.091 3.593 0 .39-.028.79-.085 1.203-.239 1.616-.984 2.802-2.235 3.558-1.205.722-2.462.82-3.77.292-1.432-.584-2.473-1.782-3.121-3.592a4.444 4.444 0 0 1-.256-1.496c0-1.352.517-2.607 1.552-3.764 1.024-1.123 2.2-1.805 3.531-2.045zm18.05-.67l-2.013.257c-.17 1.352-.256 5.506-.256 12.462l2.013-.275a25.378 25.378 0 0 1-.085-2.27c0-1.11.057-2.858.17-5.242.114-2.394.171-4.039.171-4.933zM63.441 2c-.011 0-.347.086-1.006.258-.41.103-.75.155-1.024.155.103 1.455.228 2.435.376 2.939.125.962.438 1.92.938 2.87.341.722.904 1.375 1.689 1.96.898.676 1.814 1.014 2.746 1.014 1.876 0 3.264-.676 4.162-2.028.228-.253.444-.556.648-.911l-1.108-.825c-.364 1.145-.706 1.856-1.024 2.13-.33.287-.847.43-1.552.43-1.32 0-2.314-.378-2.985-1.134-.671-.768-1.132-1.501-1.382-2.2-.239-.699-.387-1.49-.444-2.372A19.88 19.88 0 0 1 63.441 2zm12.605.292l-2.013.138c.17.756.256 2.028.256 3.816 0 2.383-.131 5.219-.393 8.508l2.013-.275.137-5.415 1.637.035c1.103.023 2.064.034 2.883.034 2.638 0 4.043-.114 4.213-.344v5.965l2.013-.138a107.56 107.56 0 0 1-.136-5.655c0-2.693.09-4.916.273-6.669h-1.894c-.022.355-.011.934.034 1.736.046.951.069 1.593.069 1.925 0 1.65-.347 2.418-1.04 2.304h-8.052V2.292zm20.41 0a3.034 3.034 0 0 1-.733.103c-.228 0-.477-.034-.75-.103-.865 1.81-2.024 3.879-3.48 6.205-.16.24-1.462 2.235-3.906 5.982l.136.137h1.484c.614-.94 1.461-2.337 2.542-4.194l.614-1.1c.204-.263.54-.395 1.007-.395.465.057.966.086 1.5.086.853 0 1.65-.075 2.388-.224.478.803 1.007 1.84 1.587 3.111a195.55 195.55 0 0 0 1.364 2.991 45.07 45.07 0 0 1 1.894-.412l-3.276-6.704c-1.307-2.67-2.097-4.497-2.37-5.483zm.495 5.827c-.25.172-1.091.258-2.524.258-.933 0-1.399-.069-1.399-.206 0-.012.011-.029.034-.052l2.15-3.919 1.74 3.919zm12.961.67c-1.183-.034-2.189-.48-3.019-1.34-.41-.527-.614-1.077-.614-1.65 0-.768.335-1.438 1.006-2.011.66-.436 1.575-.648 2.746-.636.182 5.11.274 8.886.274 11.327.273.091.943.137 2.012.137-.216-2.429-.324-5.322-.324-8.68a66.2 66.2 0 0 1 .052-2.802l.955-.017V2.43c-.808-.092-1.78-.11-2.917-.052-1.126.057-1.899.166-2.32.327-.637.229-1.109.458-1.416.687a5.12 5.12 0 0 0-1.297 1.478c-.397.665-.596 1.307-.596 1.926 0 1.065.585 1.873 1.757 2.423.307.15.955.246 1.944.292-.955.997-2.923 2.43-5.901 4.297.193.195.465.43.818.705.364.275.58.447.649.516 2.444-1.891 4.48-3.719 6.106-5.483l.085-.757zm-94.49 24.687c-1.341-2.67-3.252-6.434-5.73-11.292l-1.877.412c.114.527.17.825.17.894 0 .092-.016.155-.05.19a879.046 879.046 0 0 0-5.92 10.003l-.409-.018c-.512.07-.7 1.163-.563 3.283l1.16.052a5.4 5.4 0 0 0 .051-.756c0-.837.097-1.26.29-1.272.148-.012.347-.023.597-.035.262-.011 3.503-.023 9.723-.034 1.33 0 2.104-.006 2.32-.017.102 0 .154.35.154 1.048v1.014h.972c.33-1.375.489-2.177.478-2.406-.012-.23-.018-.39-.018-.481 0-.378-.449-.573-1.347-.585zm-11.7.19a71.16 71.16 0 0 1 2.507-5.002c1.24-2.235 2.08-3.673 2.524-4.315l4.418 9.162-9.45.154zm16.677-10.262c-1.933.928-2.832 3.14-2.695 6.635.068 1.787.853 3.134 2.354 4.039 1.103.676 2.331 1.014 3.684 1.014.262 0 .49-.017.683-.051 2.308-.436 3.832-1.02 4.571-1.754 1.149-1.146 1.723-2.664 1.723-4.555 0-1.592-.415-2.99-1.245-4.194-.91-1.306-2.098-2.045-3.565-2.217a4.561 4.561 0 0 0-.597-.034c-.774 0-1.587.086-2.44.258-1.023.206-1.848.492-2.473.859zm4.026-.413c1.433.459 2.53 1.21 3.292 2.252.728 1.009 1.091 2.206 1.091 3.593 0 .39-.028.79-.085 1.203-.239 1.615-.983 2.801-2.234 3.558-1.206.722-2.462.819-3.77.292-1.433-.585-2.474-1.782-3.122-3.593a4.443 4.443 0 0 1-.256-1.495c0-1.352.518-2.607 1.553-3.764 1.023-1.123 2.2-1.805 3.53-2.046zm21.052 11.38c-1.342-2.705-3.4-6.767-6.175-12.187l-1.877.412c.114.527.17.825.17.894 0 .092-.016.155-.05.19-1.479 2.44-3.668 6.135-6.568 11.086l.12.275 1.62-.533c.933-1.81 1.973-3.759 3.122-5.844 1.24-2.235 2.08-3.673 2.524-4.315l5.1 10.554 2.014-.533zm12.337.395c.25.045.506.097.767.154.262.057.5.143.717.258-.216-3.45-.325-6.543-.325-9.282 0-1.157.018-2.303.052-3.437-.273 0-.762-.092-1.467-.275-1.047 1.34-2.559 3.036-4.538 5.087-.34.356-2.052 2.086-5.134 5.191.034-.756.063-2.383.085-4.881.023-2.074.08-3.696.17-4.865-.522 0-1.057-.131-1.603-.395-.011.436-.017.945-.017 1.53 0 .71.017 1.833.051 3.369.034 1.535.052 2.641.052 3.317 0 2.005-.12 3.191-.359 3.558.671.447 1.166.762 1.484.946.353-.356 1.439-1.439 3.258-3.25a434.09 434.09 0 0 0 3.259-3.282 174.747 174.747 0 0 0 3.155-3.352l.24 4.847c.101 1.925.153 3.512.153 4.762zm5.438-12.187l-2.013.137c.171.757.256 2.029.256 3.816 0 2.384-.13 5.22-.392 8.509l2.013-.275.136-5.415 1.638.035c1.103.023 2.064.034 2.883.034 2.638 0 4.042-.115 4.213-.344v5.965l2.013-.138a107.559 107.559 0 0 1-.137-5.655c0-2.693.091-4.916.273-6.669h-1.893c-.023.355-.011.934.034 1.736.045.951.068 1.593.068 1.925 0 1.65-.347 2.418-1.04 2.303h-8.052V22.58zm20.411 0a3.035 3.035 0 0 1-.733.103 3.09 3.09 0 0 1-.75-.103c-.865 1.81-2.025 3.879-3.48 6.205-.16.24-1.462 2.234-3.907 5.982l.136.137h1.484c.615-.94 1.462-2.338 2.542-4.194l.614-1.1c.205-.264.54-.395 1.007-.395.466.057.966.086 1.5.086.854 0 1.65-.075 2.389-.224.477.802 1.006 1.84 1.586 3.111a177.981 177.981 0 0 0 1.365 2.991c.41-.103 1.04-.24 1.893-.412l-3.275-6.704c-1.308-2.67-2.098-4.498-2.37-5.483zm.495 5.827c-.25.172-1.092.258-2.525.258-.932 0-1.398-.07-1.398-.207 0-.011.01-.028.034-.051l2.149-3.92 1.74 3.92z"/></mask><path d="M1.862 14.083v.533h2.695c1.535 0 2.82-.315 3.855-.945 1.035-.642 1.552-1.415 1.552-2.32 0-1.227-.955-2.35-2.865-3.37 1.91-.95 2.809-1.942 2.695-2.973 0-.516-.194-1.054-.58-1.616-.523-.733-1.228-1.1-2.115-1.1H1.862v.688c.273-.092.631-.138 1.075-.138v11.241H1.862zm2.831-.137L4.83 2.98a4.89 4.89 0 0 1 .41-.017c.568 0 1.08.12 1.535.36.523.298.858.722 1.006 1.272.091.321.136.625.136.911 0 .665-.244 1.244-.733 1.736-.262.264-.7.573-1.314.929-.454.275-.67.48-.648.618 0 .104.376.333 1.126.688.808.367 1.285.728 1.433 1.083.216.504.324.945.324 1.323 0 .676-.375 1.175-1.126 1.496-.227.091-.99.28-2.286.567zm9.26-10.829c-1.934.928-2.832 3.14-2.696 6.635.068 1.787.853 3.134 2.354 4.04 1.103.675 2.331 1.013 3.685 1.013.261 0 .489-.017.682-.051 2.308-.436 3.832-1.02 4.571-1.753 1.149-1.146 1.723-2.665 1.723-4.555 0-1.593-.415-2.991-1.245-4.194-.91-1.307-2.098-2.046-3.565-2.218A4.54 4.54 0 0 0 18.865 2c-.773 0-1.586.086-2.44.258-1.023.206-1.847.493-2.473.86zm4.025-.412c1.433.458 2.53 1.209 3.292 2.251.728 1.009 1.092 2.206 1.092 3.593 0 .39-.029.79-.085 1.203-.24 1.616-.984 2.802-2.235 3.558-1.206.722-2.462.82-3.77.292-1.433-.584-2.473-1.782-3.121-3.592a4.444 4.444 0 0 1-.256-1.496c0-1.352.517-2.607 1.552-3.764 1.023-1.123 2.2-1.805 3.53-2.045zm9.47 1.22c-.728.516-1.285 1.26-1.672 2.235-.341.859-.512 1.81-.512 2.853 0 1.283.233 2.337.7 3.162 1.023 1.822 2.558 2.733 4.605 2.733 1.24 0 2.542-.32 3.906-.962 1.138-.55 1.797-1.003 1.98-1.358l-.547-.413c-.34.447-.892.826-1.654 1.135a6.688 6.688 0 0 1-2.49.481c-1.036 0-1.917-.246-2.645-.739-.853-.584-1.41-1.46-1.671-2.63a9.061 9.061 0 0 1-.24-2.01c0-1.628.467-2.94 1.4-3.937.886-.951 1.984-1.427 3.292-1.427 1.285 0 2.49.47 3.616 1.41l1.075-1.083c-.273-.263-.723-.533-1.348-.808-.625-.286-1.075-.418-1.348-.395a17.926 17.926 0 0 0-4.179.808c-1.114.355-1.87.67-2.268.945zm18.919-.55c.296-.286.517-.647.665-1.083l-.136-.12c-1.024.298-2.843.447-5.459.447-2.99 0-4.526-.15-4.605-.447-.08.24-.302.556-.666.945.887.172 2.406.258 4.555.258 0 .252.017 1.238.05 2.956.046 1.72.07 3.14.07 4.263 0 1.673-.04 3.014-.12 4.022.398-.069.71-.103.938-.103.227 0 .54.034.938.103 0-1.214.023-3.048.068-5.5.046-2.464.069-4.331.069-5.603.398 0 .989-.023 1.774-.07a33.714 33.714 0 0 1 1.859-.068zm3.767-.258c-1.934.928-2.832 3.14-2.696 6.635.069 1.787.853 3.134 2.354 4.04 1.103.675 2.332 1.013 3.685 1.013.262 0 .489-.017.682-.051 2.309-.436 3.833-1.02 4.572-1.753 1.148-1.146 1.723-2.665 1.723-4.555 0-1.593-.415-2.991-1.245-4.194-.91-1.307-2.099-2.046-3.566-2.218A4.54 4.54 0 0 0 55.046 2c-.773 0-1.586.086-2.439.258-1.023.206-1.848.493-2.473.86zm4.025-.412c1.433.458 2.53 1.209 3.293 2.251.727 1.009 1.091 2.206 1.091 3.593 0 .39-.028.79-.085 1.203-.239 1.616-.984 2.802-2.235 3.558-1.205.722-2.462.82-3.77.292-1.432-.584-2.473-1.782-3.121-3.592a4.444 4.444 0 0 1-.256-1.496c0-1.352.517-2.607 1.552-3.764 1.024-1.123 2.2-1.805 3.531-2.045zm18.05-.67l-2.013.257c-.17 1.352-.256 5.506-.256 12.462l2.013-.275a25.378 25.378 0 0 1-.085-2.27c0-1.11.057-2.858.17-5.242.114-2.394.171-4.039.171-4.933zM63.441 2c-.011 0-.347.086-1.006.258-.41.103-.75.155-1.024.155.103 1.455.228 2.435.376 2.939.125.962.438 1.92.938 2.87.341.722.904 1.375 1.689 1.96.898.676 1.814 1.014 2.746 1.014 1.876 0 3.264-.676 4.162-2.028.228-.253.444-.556.648-.911l-1.108-.825c-.364 1.145-.706 1.856-1.024 2.13-.33.287-.847.43-1.552.43-1.32 0-2.314-.378-2.985-1.134-.671-.768-1.132-1.501-1.382-2.2-.239-.699-.387-1.49-.444-2.372A19.88 19.88 0 0 1 63.441 2zm12.605.292l-2.013.138c.17.756.256 2.028.256 3.816 0 2.383-.131 5.219-.393 8.508l2.013-.275.137-5.415 1.637.035c1.103.023 2.064.034 2.883.034 2.638 0 4.043-.114 4.213-.344v5.965l2.013-.138a107.56 107.56 0 0 1-.136-5.655c0-2.693.09-4.916.273-6.669h-1.894c-.022.355-.011.934.034 1.736.046.951.069 1.593.069 1.925 0 1.65-.347 2.418-1.04 2.304h-8.052V2.292zm20.41 0a3.034 3.034 0 0 1-.733.103c-.228 0-.477-.034-.75-.103-.865 1.81-2.024 3.879-3.48 6.205-.16.24-1.462 2.235-3.906 5.982l.136.137h1.484c.614-.94 1.461-2.337 2.542-4.194l.614-1.1c.204-.263.54-.395 1.007-.395.465.057.966.086 1.5.086.853 0 1.65-.075 2.388-.224.478.803 1.007 1.84 1.587 3.111a195.55 195.55 0 0 0 1.364 2.991 45.07 45.07 0 0 1 1.894-.412l-3.276-6.704c-1.307-2.67-2.097-4.497-2.37-5.483zm.495 5.827c-.25.172-1.091.258-2.524.258-.933 0-1.399-.069-1.399-.206 0-.012.011-.029.034-.052l2.15-3.919 1.74 3.919zm12.961.67c-1.183-.034-2.189-.48-3.019-1.34-.41-.527-.614-1.077-.614-1.65 0-.768.335-1.438 1.006-2.011.66-.436 1.575-.648 2.746-.636.182 5.11.274 8.886.274 11.327.273.091.943.137 2.012.137-.216-2.429-.324-5.322-.324-8.68a66.2 66.2 0 0 1 .052-2.802l.955-.017V2.43c-.808-.092-1.78-.11-2.917-.052-1.126.057-1.899.166-2.32.327-.637.229-1.109.458-1.416.687a5.12 5.12 0 0 0-1.297 1.478c-.397.665-.596 1.307-.596 1.926 0 1.065.585 1.873 1.757 2.423.307.15.955.246 1.944.292-.955.997-2.923 2.43-5.901 4.297.193.195.465.43.818.705.364.275.58.447.649.516 2.444-1.891 4.48-3.719 6.106-5.483l.085-.757zm-94.49 24.687c-1.341-2.67-3.252-6.434-5.73-11.292l-1.877.412c.114.527.17.825.17.894 0 .092-.016.155-.05.19a879.046 879.046 0 0 0-5.92 10.003l-.409-.018c-.512.07-.7 1.163-.563 3.283l1.16.052a5.4 5.4 0 0 0 .051-.756c0-.837.097-1.26.29-1.272.148-.012.347-.023.597-.035.262-.011 3.503-.023 9.723-.034 1.33 0 2.104-.006 2.32-.017.102 0 .154.35.154 1.048v1.014h.972c.33-1.375.489-2.177.478-2.406-.012-.23-.018-.39-.018-.481 0-.378-.449-.573-1.347-.585zm-11.7.19a71.16 71.16 0 0 1 2.507-5.002c1.24-2.235 2.08-3.673 2.524-4.315l4.418 9.162-9.45.154zm16.677-10.262c-1.933.928-2.832 3.14-2.695 6.635.068 1.787.853 3.134 2.354 4.039 1.103.676 2.331 1.014 3.684 1.014.262 0 .49-.017.683-.051 2.308-.436 3.832-1.02 4.571-1.754 1.149-1.146 1.723-2.664 1.723-4.555 0-1.592-.415-2.99-1.245-4.194-.91-1.306-2.098-2.045-3.565-2.217a4.561 4.561 0 0 0-.597-.034c-.774 0-1.587.086-2.44.258-1.023.206-1.848.492-2.473.859zm4.026-.413c1.433.459 2.53 1.21 3.292 2.252.728 1.009 1.091 2.206 1.091 3.593 0 .39-.028.79-.085 1.203-.239 1.615-.983 2.801-2.234 3.558-1.206.722-2.462.819-3.77.292-1.433-.585-2.474-1.782-3.122-3.593a4.443 4.443 0 0 1-.256-1.495c0-1.352.518-2.607 1.553-3.764 1.023-1.123 2.2-1.805 3.53-2.046zm21.052 11.38c-1.342-2.705-3.4-6.767-6.175-12.187l-1.877.412c.114.527.17.825.17.894 0 .092-.016.155-.05.19-1.479 2.44-3.668 6.135-6.568 11.086l.12.275 1.62-.533c.933-1.81 1.973-3.759 3.122-5.844 1.24-2.235 2.08-3.673 2.524-4.315l5.1 10.554 2.014-.533zm12.337.395c.25.045.506.097.767.154.262.057.5.143.717.258-.216-3.45-.325-6.543-.325-9.282 0-1.157.018-2.303.052-3.437-.273 0-.762-.092-1.467-.275-1.047 1.34-2.559 3.036-4.538 5.087-.34.356-2.052 2.086-5.134 5.191.034-.756.063-2.383.085-4.881.023-2.074.08-3.696.17-4.865-.522 0-1.057-.131-1.603-.395-.011.436-.017.945-.017 1.53 0 .71.017 1.833.051 3.369.034 1.535.052 2.641.052 3.317 0 2.005-.12 3.191-.359 3.558.671.447 1.166.762 1.484.946.353-.356 1.439-1.439 3.258-3.25a434.09 434.09 0 0 0 3.259-3.282 174.747 174.747 0 0 0 3.155-3.352l.24 4.847c.101 1.925.153 3.512.153 4.762zm5.438-12.187l-2.013.137c.171.757.256 2.029.256 3.816 0 2.384-.13 5.22-.392 8.509l2.013-.275.136-5.415 1.638.035c1.103.023 2.064.034 2.883.034 2.638 0 4.042-.115 4.213-.344v5.965l2.013-.138a107.559 107.559 0 0 1-.137-5.655c0-2.693.091-4.916.273-6.669h-1.893c-.023.355-.011.934.034 1.736.045.951.068 1.593.068 1.925 0 1.65-.347 2.418-1.04 2.303h-8.052V22.58zm20.411 0a3.035 3.035 0 0 1-.733.103 3.09 3.09 0 0 1-.75-.103c-.865 1.81-2.025 3.879-3.48 6.205-.16.24-1.462 2.234-3.907 5.982l.136.137h1.484c.615-.94 1.462-2.338 2.542-4.194l.614-1.1c.205-.264.54-.395 1.007-.395.466.057.966.086 1.5.086.854 0 1.65-.075 2.389-.224.477.802 1.006 1.84 1.586 3.111a177.981 177.981 0 0 0 1.365 2.991c.41-.103 1.04-.24 1.893-.412l-3.275-6.704c-1.308-2.67-2.098-4.498-2.37-5.483zm.495 5.827c-.25.172-1.092.258-2.525.258-.932 0-1.398-.07-1.398-.207 0-.011.01-.028.034-.051l2.149-3.92 1.74 3.92z"/><path d="M1.862 14.083v.533h2.695c1.535 0 2.82-.315 3.855-.945 1.035-.642 1.552-1.415 1.552-2.32 0-1.227-.955-2.35-2.865-3.37 1.91-.95 2.809-1.942 2.695-2.973 0-.516-.194-1.054-.58-1.616-.523-.733-1.228-1.1-2.115-1.1H1.862v.688c.273-.092.631-.138 1.075-.138v11.241H1.862zm2.831-.137L4.83 2.98a4.89 4.89 0 0 1 .41-.017c.568 0 1.08.12 1.535.36.523.298.858.722 1.006 1.272.091.321.136.625.136.911 0 .665-.244 1.244-.733 1.736-.262.264-.7.573-1.314.929-.454.275-.67.48-.648.618 0 .104.376.333 1.126.688.808.367 1.285.728 1.433 1.083.216.504.324.945.324 1.323 0 .676-.375 1.175-1.126 1.496-.227.091-.99.28-2.286.567zm9.26-10.829c-1.934.928-2.832 3.14-2.696 6.635.068 1.787.853 3.134 2.354 4.04 1.103.675 2.331 1.013 3.685 1.013.261 0 .489-.017.682-.051 2.308-.436 3.832-1.02 4.571-1.753 1.149-1.146 1.723-2.665 1.723-4.555 0-1.593-.415-2.991-1.245-4.194-.91-1.307-2.098-2.046-3.565-2.218A4.54 4.54 0 0 0 18.865 2c-.773 0-1.586.086-2.44.258-1.023.206-1.847.493-2.473.86zm4.025-.412c1.433.458 2.53 1.209 3.292 2.251.728 1.009 1.092 2.206 1.092 3.593 0 .39-.029.79-.085 1.203-.24 1.616-.984 2.802-2.235 3.558-1.206.722-2.462.82-3.77.292-1.433-.584-2.473-1.782-3.121-3.592a4.444 4.444 0 0 1-.256-1.496c0-1.352.517-2.607 1.552-3.764 1.023-1.123 2.2-1.805 3.53-2.045zm9.47 1.22c-.728.516-1.285 1.26-1.672 2.235-.341.859-.512 1.81-.512 2.853 0 1.283.233 2.337.7 3.162 1.023 1.822 2.558 2.733 4.605 2.733 1.24 0 2.542-.32 3.906-.962 1.138-.55 1.797-1.003 1.98-1.358l-.547-.413c-.34.447-.892.826-1.654 1.135a6.688 6.688 0 0 1-2.49.481c-1.036 0-1.917-.246-2.645-.739-.853-.584-1.41-1.46-1.671-2.63a9.061 9.061 0 0 1-.24-2.01c0-1.628.467-2.94 1.4-3.937.886-.951 1.984-1.427 3.292-1.427 1.285 0 2.49.47 3.616 1.41l1.075-1.083c-.273-.263-.723-.533-1.348-.808-.625-.286-1.075-.418-1.348-.395a17.926 17.926 0 0 0-4.179.808c-1.114.355-1.87.67-2.268.945zm18.919-.55c.296-.286.517-.647.665-1.083l-.136-.12c-1.024.298-2.843.447-5.459.447-2.99 0-4.526-.15-4.605-.447-.08.24-.302.556-.666.945.887.172 2.406.258 4.555.258 0 .252.017 1.238.05 2.956.046 1.72.07 3.14.07 4.263 0 1.673-.04 3.014-.12 4.022.398-.069.71-.103.938-.103.227 0 .54.034.938.103 0-1.214.023-3.048.068-5.5.046-2.464.069-4.331.069-5.603.398 0 .989-.023 1.774-.07a33.714 33.714 0 0 1 1.859-.068zm3.767-.258c-1.934.928-2.832 3.14-2.696 6.635.069 1.787.853 3.134 2.354 4.04 1.103.675 2.332 1.013 3.685 1.013.262 0 .489-.017.682-.051 2.309-.436 3.833-1.02 4.572-1.753 1.148-1.146 1.723-2.665 1.723-4.555 0-1.593-.415-2.991-1.245-4.194-.91-1.307-2.099-2.046-3.566-2.218A4.54 4.54 0 0 0 55.046 2c-.773 0-1.586.086-2.439.258-1.023.206-1.848.493-2.473.86zm4.025-.412c1.433.458 2.53 1.209 3.293 2.251.727 1.009 1.091 2.206 1.091 3.593 0 .39-.028.79-.085 1.203-.239 1.616-.984 2.802-2.235 3.558-1.205.722-2.462.82-3.77.292-1.432-.584-2.473-1.782-3.121-3.592a4.444 4.444 0 0 1-.256-1.496c0-1.352.517-2.607 1.552-3.764 1.024-1.123 2.2-1.805 3.531-2.045zm18.05-.67l-2.013.257c-.17 1.352-.256 5.506-.256 12.462l2.013-.275a25.378 25.378 0 0 1-.085-2.27c0-1.11.057-2.858.17-5.242.114-2.394.171-4.039.171-4.933zM63.441 2c-.011 0-.347.086-1.006.258-.41.103-.75.155-1.024.155.103 1.455.228 2.435.376 2.939.125.962.438 1.92.938 2.87.341.722.904 1.375 1.689 1.96.898.676 1.814 1.014 2.746 1.014 1.876 0 3.264-.676 4.162-2.028.228-.253.444-.556.648-.911l-1.108-.825c-.364 1.145-.706 1.856-1.024 2.13-.33.287-.847.43-1.552.43-1.32 0-2.314-.378-2.985-1.134-.671-.768-1.132-1.501-1.382-2.2-.239-.699-.387-1.49-.444-2.372A19.88 19.88 0 0 1 63.441 2zm12.605.292l-2.013.138c.17.756.256 2.028.256 3.816 0 2.383-.131 5.219-.393 8.508l2.013-.275.137-5.415 1.637.035c1.103.023 2.064.034 2.883.034 2.638 0 4.043-.114 4.213-.344v5.965l2.013-.138a107.56 107.56 0 0 1-.136-5.655c0-2.693.09-4.916.273-6.669h-1.894c-.022.355-.011.934.034 1.736.046.951.069 1.593.069 1.925 0 1.65-.347 2.418-1.04 2.304h-8.052V2.292zm20.41 0a3.034 3.034 0 0 1-.733.103c-.228 0-.477-.034-.75-.103-.865 1.81-2.024 3.879-3.48 6.205-.16.24-1.462 2.235-3.906 5.982l.136.137h1.484c.614-.94 1.461-2.337 2.542-4.194l.614-1.1c.204-.263.54-.395 1.007-.395.465.057.966.086 1.5.086.853 0 1.65-.075 2.388-.224.478.803 1.007 1.84 1.587 3.111a195.55 195.55 0 0 0 1.364 2.991 45.07 45.07 0 0 1 1.894-.412l-3.276-6.704c-1.307-2.67-2.097-4.497-2.37-5.483zm.495 5.827c-.25.172-1.091.258-2.524.258-.933 0-1.399-.069-1.399-.206 0-.012.011-.029.034-.052l2.15-3.919 1.74 3.919zm12.961.67c-1.183-.034-2.189-.48-3.019-1.34-.41-.527-.614-1.077-.614-1.65 0-.768.335-1.438 1.006-2.011.66-.436 1.575-.648 2.746-.636.182 5.11.274 8.886.274 11.327.273.091.943.137 2.012.137-.216-2.429-.324-5.322-.324-8.68a66.2 66.2 0 0 1 .052-2.802l.955-.017V2.43c-.808-.092-1.78-.11-2.917-.052-1.126.057-1.899.166-2.32.327-.637.229-1.109.458-1.416.687a5.12 5.12 0 0 0-1.297 1.478c-.397.665-.596 1.307-.596 1.926 0 1.065.585 1.873 1.757 2.423.307.15.955.246 1.944.292-.955.997-2.923 2.43-5.901 4.297.193.195.465.43.818.705.364.275.58.447.649.516 2.444-1.891 4.48-3.719 6.106-5.483l.085-.757zm-94.49 24.687c-1.341-2.67-3.252-6.434-5.73-11.292l-1.877.412c.114.527.17.825.17.894 0 .092-.016.155-.05.19a879.046 879.046 0 0 0-5.92 10.003l-.409-.018c-.512.07-.7 1.163-.563 3.283l1.16.052a5.4 5.4 0 0 0 .051-.756c0-.837.097-1.26.29-1.272.148-.012.347-.023.597-.035.262-.011 3.503-.023 9.723-.034 1.33 0 2.104-.006 2.32-.017.102 0 .154.35.154 1.048v1.014h.972c.33-1.375.489-2.177.478-2.406-.012-.23-.018-.39-.018-.481 0-.378-.449-.573-1.347-.585zm-11.7.19a71.16 71.16 0 0 1 2.507-5.002c1.24-2.235 2.08-3.673 2.524-4.315l4.418 9.162-9.45.154zm16.677-10.262c-1.933.928-2.832 3.14-2.695 6.635.068 1.787.853 3.134 2.354 4.039 1.103.676 2.331 1.014 3.684 1.014.262 0 .49-.017.683-.051 2.308-.436 3.832-1.02 4.571-1.754 1.149-1.146 1.723-2.664 1.723-4.555 0-1.592-.415-2.99-1.245-4.194-.91-1.306-2.098-2.045-3.565-2.217a4.561 4.561 0 0 0-.597-.034c-.774 0-1.587.086-2.44.258-1.023.206-1.848.492-2.473.859zm4.026-.413c1.433.459 2.53 1.21 3.292 2.252.728 1.009 1.091 2.206 1.091 3.593 0 .39-.028.79-.085 1.203-.239 1.615-.983 2.801-2.234 3.558-1.206.722-2.462.819-3.77.292-1.433-.585-2.474-1.782-3.122-3.593a4.443 4.443 0 0 1-.256-1.495c0-1.352.518-2.607 1.553-3.764 1.023-1.123 2.2-1.805 3.53-2.046zm21.052 11.38c-1.342-2.705-3.4-6.767-6.175-12.187l-1.877.412c.114.527.17.825.17.894 0 .092-.016.155-.05.19-1.479 2.44-3.668 6.135-6.568 11.086l.12.275 1.62-.533c.933-1.81 1.973-3.759 3.122-5.844 1.24-2.235 2.08-3.673 2.524-4.315l5.1 10.554 2.014-.533zm12.337.395c.25.045.506.097.767.154.262.057.5.143.717.258-.216-3.45-.325-6.543-.325-9.282 0-1.157.018-2.303.052-3.437-.273 0-.762-.092-1.467-.275-1.047 1.34-2.559 3.036-4.538 5.087-.34.356-2.052 2.086-5.134 5.191.034-.756.063-2.383.085-4.881.023-2.074.08-3.696.17-4.865-.522 0-1.057-.131-1.603-.395-.011.436-.017.945-.017 1.53 0 .71.017 1.833.051 3.369.034 1.535.052 2.641.052 3.317 0 2.005-.12 3.191-.359 3.558.671.447 1.166.762 1.484.946.353-.356 1.439-1.439 3.258-3.25a434.09 434.09 0 0 0 3.259-3.282 174.747 174.747 0 0 0 3.155-3.352l.24 4.847c.101 1.925.153 3.512.153 4.762zm5.438-12.187l-2.013.137c.171.757.256 2.029.256 3.816 0 2.384-.13 5.22-.392 8.509l2.013-.275.136-5.415 1.638.035c1.103.023 2.064.034 2.883.034 2.638 0 4.042-.115 4.213-.344v5.965l2.013-.138a107.559 107.559 0 0 1-.137-5.655c0-2.693.091-4.916.273-6.669h-1.893c-.023.355-.011.934.034 1.736.045.951.068 1.593.068 1.925 0 1.65-.347 2.418-1.04 2.303h-8.052V22.58zm20.411 0a3.035 3.035 0 0 1-.733.103 3.09 3.09 0 0 1-.75-.103c-.865 1.81-2.025 3.879-3.48 6.205-.16.24-1.462 2.234-3.907 5.982l.136.137h1.484c.615-.94 1.462-2.338 2.542-4.194l.614-1.1c.205-.264.54-.395 1.007-.395.466.057.966.086 1.5.086.854 0 1.65-.075 2.389-.224.477.802 1.006 1.84 1.586 3.111a177.981 177.981 0 0 0 1.365 2.991c.41-.103 1.04-.24 1.893-.412l-3.275-6.704c-1.308-2.67-2.098-4.498-2.37-5.483zm.495 5.827c-.25.172-1.092.258-2.525.258-.932 0-1.398-.07-1.398-.207 0-.011.01-.028.034-.051l2.149-3.92 1.74 3.92z" mask="url(#ja)"/></symbol></svg>