<?xml version="1.0" encoding="utf-8"?><svg xmlns="http://www.w3.org/2000/svg" xmlns:xlink="http://www.w3.org/1999/xlink"><symbol viewBox="0 0 28 15" id="arrow" xmlns="http://www.w3.org/2000/svg"><path d="M.367 6.644v-.001L6.9.353a1.28 1.28 0 0 1 1.768.003c.487.474.485 1.24-.004 1.711L4.278 6.29H26.75c.69 0 1.25.542 1.25 1.21 0 .668-.56 1.21-1.25 1.21H4.278l4.385 4.223a1.18 1.18 0 0 1 .004 1.71 1.28 1.28 0 0 1-1.768.005L.368 8.358l-.001-.002a1.183 1.183 0 0 1 0-1.712z"/></symbol><symbol viewBox="0 0 41 34" id="basket" xmlns="http://www.w3.org/2000/svg"><path d="M5.854 3.019l.073.287 4.531 17.85c.34 1.337 1.559 2.263 2.974 2.263h19.8a3.01 3.01 0 0 0 2.922-2.218L40.5 5.48H12.574l.67 2.638h23.779l-.134.483-3.29 11.9-.077.28H13.136l-.073-.288L8.53 2.644l-2.677.375zm0 0h-.297m.297 0h-.297m0 0h-3.83c-.36 0-.702-.14-.954-.389a1.306 1.306 0 0 1-.392-.93c0-.348.14-.683.392-.93a1.36 1.36 0 0 1 .953-.389H5.56M5.557 3.02L5.559.38m0 0h.002m-.002 0h.002m0 0a3.076 3.076 0 0 1 1.885.628c.538.411.92.987 1.085 1.635L5.561.38zM10.74 28.9c0-2.58 2.163-4.719 4.798-4.719 2.635 0 4.797 2.139 4.797 4.719 0 2.58-2.162 4.719-4.797 4.719S10.74 31.48 10.74 28.9zm15.537 0c0-2.58 2.163-4.719 4.798-4.719 2.634 0 4.797 2.139 4.797 4.719 0 2.58-2.163 4.719-4.797 4.719-2.635 0-4.798-2.139-4.798-4.719zm-8.631 0c0-1.175-.93-2.081-2.108-2.081-1.179 0-2.108.906-2.108 2.081 0 1.175.93 2.081 2.108 2.081 1.179 0 2.108-.906 2.108-2.081zm15.536 0c0-1.175-.929-2.081-2.107-2.081-1.18 0-2.108.906-2.108 2.081 0 1.175.929 2.081 2.108 2.081 1.178 0 2.107-.906 2.107-2.081z"/></symbol><symbol viewBox="0 0 33 32" id="ic1" xmlns="http://www.w3.org/2000/svg"><path fill-rule="evenodd" clip-rule="evenodd" d="M27.404 1.933L25.426 0l-7.155 6.99-.102.199c-.324.635-.631 1.641-.601 2.765.02.795.213 1.671.703 2.503l-1.648 1.61L2.417.187 1.47 1.576C.91 2.395.253 3.755.057 5.271c-.2 1.547.076 3.385 1.588 4.862l9.502 9.284-10.9 10.65L2.224 32l10.9-10.65 2.798 2.733 3.498-3.417L31.02 32 33 30.067 18.602 16l1.647-1.61a5.497 5.497 0 0 0 2.563.687c1.15.03 2.18-.27 2.83-.588l.203-.1L33 7.4l-1.978-1.932-6.812 6.655a3.615 3.615 0 0 1-1.326.223 2.976 2.976 0 0 1-.488-.052l7.806-7.627-1.978-1.933-7.807 7.627a2.788 2.788 0 0 1-.053-.477 3.39 3.39 0 0 1 .229-1.295l6.811-6.655zM3.046 4.669l14.396 14.064-1.519 1.484L3.623 8.2c-.726-.71-.917-1.605-.79-2.587a5.51 5.51 0 0 1 .213-.944z"/></symbol><symbol viewBox="0 0 39 41" id="ic2" xmlns="http://www.w3.org/2000/svg"><path d="M36.844 23H2.156C1.518 23 1 23.538 1 24.2V29c0 3.31 2.592 6 5.781 6h18.5c2.794 0 5.127-2.064 5.664-4.8h5.899c.638 0 1.156-.538 1.156-1.2v-4.8c0-.662-.518-1.2-1.156-1.2zm-8.094 6c0 1.985-1.556 3.6-3.469 3.6h-18.5c-1.912 0-3.468-1.615-3.468-3.6v-3.6H28.75V29zm6.938-1.2h-4.626v-2.4h4.625v2.4zM24.37 12.388c-.663-1.478-.247-2.14-.182-2.233.388-.46.418-1.23.058-1.735-.367-.517-1.001-.562-1.409-.105-.07.078-1.706 1.958-.207 5.298.676 1.507.232 2.165.207 2.202-.41.46-.45 1.25-.083 1.765.197.278.47.42.746.42a.894.894 0 0 0 .663-.315c.07-.077 1.706-1.957.207-5.297zm-8-2.001c-.663-1.478-.247-2.143-.182-2.233.388-.46.418-1.23.058-1.735-.367-.517-1-.56-1.408-.105-.07.078-1.707 1.958-.208 5.298.676 1.508.231 2.165.207 2.203-.41.46-.45 1.25-.083 1.765.197.277.47.42.746.42a.894.894 0 0 0 .663-.315c.07-.078 1.706-1.958.207-5.298zm-8 2.001c-.662-1.478-.247-2.143-.182-2.233.388-.46.417-1.23.058-1.735-.369-.517-1.001-.562-1.408-.105-.07.078-1.707 1.958-.208 5.298.676 1.507.231 2.165.208 2.202-.412.46-.451 1.25-.084 1.765.197.278.47.42.746.42a.894.894 0 0 0 .662-.315c.07-.077 1.707-1.957.208-5.297z"/></symbol><symbol viewBox="0 0 45 45" id="ic3" xmlns="http://www.w3.org/2000/svg"><path d="M29.133 21.506a1.42 1.42 0 0 1-.392 1.964c-1.492.998-5.44 3.248-9.578 4.434a1.417 1.417 0 0 1-.776-2.724c3.773-1.082 7.453-3.176 8.787-4.067a1.41 1.41 0 0 1 1.959.393zm-3.295-5.589c0 1.565-.948 2.833-2.119 2.833-1.17 0-2.119-1.268-2.119-2.833 0-1.565.949-2.834 2.12-2.834 1.17 0 2.118 1.269 2.118 2.834zm5.729 12.512a1.42 1.42 0 0 0 .392-1.965 1.41 1.41 0 0 0-1.96-.393c-.925.619-3.091 1.632-5.672 2.703-2.535 1.052-5.329 2.102-7.412 2.799a1.417 1.417 0 0 0 .894 2.688c2.155-.72 5.012-1.795 7.598-2.869 2.541-1.054 4.966-2.165 6.16-2.963z"/><path fill-rule="evenodd" clip-rule="evenodd" d="M19.123 7.015C20.443 6.29 21.979 6 23.719 6c1.747 0 3.15.299 4.297.89 1.16.597 1.952 1.439 2.554 2.345.516.775.918 1.644 1.28 2.423l.13.279c.413.886.812 1.693 1.354 2.432.833 1.136 1.81 2.22 2.785 3.303.389.432.778.865 1.158 1.3.641.734 1.256 1.481 1.728 2.206.457.7.878 1.527.956 2.406.402 4.565-2.31 8.714-6.429 11.63C29.39 38.147 23.63 40 17.362 40h-.144c-2.367 0-5.195 0-7.348-.687-1.129-.36-2.236-.955-2.987-1.986-.773-1.063-1.025-2.389-.809-3.902.245-1.722.667-3.01 1.26-4.054.596-1.048 1.317-1.766 2.016-2.386.19-.168.379-.33.567-.49 1.114-.956 2.194-1.882 3.248-3.917.69-5.49 1.415-9.577 2.863-12.289.764-1.429 1.758-2.54 3.095-3.274zm-.604 4.612c-1.179 2.207-1.868 5.828-2.58 11.549l-.03.24-.11.218c-1.355 2.718-2.874 4.015-4.065 5.032-.18.152-.35.299-.513.442-.6.532-1.059 1.01-1.431 1.665-.375.66-.71 1.587-.919 3.052-.137.966.053 1.5.294 1.831.265.364.747.698 1.561.958 1.688.538 4.086.553 6.636.553 5.74 0 10.919-1.704 14.54-4.268 3.646-2.581 5.526-5.87 5.244-9.066-.016-.18-.133-.532-.507-1.106-.358-.551-.866-1.177-1.488-1.889-.318-.365-.669-.754-1.035-1.16-1.007-1.118-2.135-2.37-3.058-3.63-.721-.983-1.219-2.012-1.638-2.91l-.126-.272c-.378-.812-.687-1.476-1.075-2.06-.406-.61-.863-1.071-1.494-1.396-.644-.332-1.574-.577-3.006-.577-1.439 0-2.464.242-3.24.667-.76.418-1.4 1.077-1.96 2.127z"/></symbol><symbol viewBox="0 0 37 33" id="ic4" xmlns="http://www.w3.org/2000/svg"><path fill-rule="evenodd" clip-rule="evenodd" d="M28.645 22.393c1.978 0 3.58-1.583 3.58-3.536s-1.602-3.536-3.58-3.536c-1.977 0-3.58 1.583-3.58 3.536s1.602 3.536 3.58 3.536zm0-2.357c.66 0 1.194-.528 1.194-1.179 0-.65-.535-1.178-1.194-1.178-.66 0-1.194.527-1.194 1.178 0 .651.535 1.179 1.194 1.179z"/><path fill-rule="evenodd" clip-rule="evenodd" d="M25.064 0H3.581v1.179c0 1.128.326 2.72 2.036 3.968.922.672 2.194 1.203 3.931 1.536v8.638H7.161v-2.357H0V25.93h7.161v-2.36h7.387L10.055 33H37V10.607H20.727l-2.247 4.714h-1.77V6.983c3.03-.239 5.03-.946 6.33-1.919 1.686-1.26 2.024-2.835 2.024-3.885V0zM14.322 7.071c-.858 0-1.653-.028-2.387-.083v8.333h2.387v-8.25zm-7.287-3.82c-.392-.286-.644-.59-.804-.894h16.135a2.852 2.852 0 0 1-.767.829c-1.012.756-3.09 1.528-7.277 1.528-4.202 0-6.28-.728-7.287-1.463zm8.636 17.963l1.686-3.535H7.16v3.535h8.51zm-1.855 9.429l8.425-17.679h12.372v17.679H13.816zM2.387 15.32v8.25h2.387v-8.25H2.387z"/></symbol><symbol viewBox="0 0 31 37" id="ic5" xmlns="http://www.w3.org/2000/svg"><path d="M25.308 8.19a.703.703 0 1 1-1.406 0 .703.703 0 0 1 1.406 0z"/><path fill-rule="evenodd" clip-rule="evenodd" d="M18.936 6.276C17.403 5.2 16.87 4.587 16.87 3.975c0-.703 0-1.405 1.407-1.405.938 0 1.25-.625 1.563-1.25.156-.312.312-.624.547-.858.703-.703 2.812-.703 3.515.702.546 1.09 1.513.912 2.248.777.214-.039.407-.074.565-.074.703 0 1.407 2.108 1.407 2.81 0 .202-.116.345-.297.448a4.322 4.322 0 0 1 .976 2.182c.719 1.198 1.616 2.475 2.133 2.992.46.459-1.549 1.26-3.194 1.795-.423.85-.963 1.75-1.616 2.704.674 2.783 1.46 6.752.833 10.242-.345 1.917-1.131 3.788-2.679 5.227-1.168 1.086-2.69 1.851-4.595 2.246v1.676h1.407v1.406h-1.407V37h-1.406v-1.405h-2.813V37h-1.406v-1.405H12.65v-1.406h1.407v-1.831c-3.135-.993-5.495-3.514-7.178-6.273-.896-1.468-1.636-3.057-2.235-4.63A11.963 11.963 0 0 1 0 19.953l1.392-2.442a9.1 9.1 0 0 0 2.252.91 33.325 33.325 0 0 1-.82-3.683l2.777-.444A31.49 31.49 0 0 0 6.66 18.7c2.318-.132 4.658-1.012 6.72-2.398 3.736-2.514 5.988-6.296 5.609-9.343a7.24 7.24 0 0 1-.054-.683zm-1.36 23.694c2.107-2.11 2.81-7.024 2.106-7.726-.703-.703-.703-2.108 0-2.81.704-.703 2.813.702 2.813 2.107 0 .426-.129 1.045-.27 1.72-.324 1.556-.71 3.412.27 3.902.192.096.372.192.536.288.582-.803.954-1.783 1.156-2.908.555-3.091-.238-6.855-.947-9.687l-.157-.63.377-.528c1.713-2.396 2.427-4.094 2.56-5.232.065-.544-.008-.917-.127-1.182-.118-.261-.32-.507-.662-.734-.972-.648-2.223-1.16-3.015-1.158a.887.887 0 0 0-.314.045c-.032.012-.037.02-.04.024-.013.017-.19.274-.08 1.151.565 4.548-2.667 9.22-6.831 12.021-2.137 1.437-4.665 2.484-7.287 2.8.463 1.097 1 2.18 1.616 3.189 2.06 3.377 4.757 5.584 8.2 5.355l.096-.007zm-2.113 4.22v-1.502c.7.11 1.434.144 2.203.093.207-.014.41-.031.61-.052v1.46h-2.813z"/></symbol><symbol viewBox="0 0 35 35" id="ic6" xmlns="http://www.w3.org/2000/svg"><path fill-rule="evenodd" clip-rule="evenodd" d="M16.452.184L15.36 0l-.436 1.026c-1.011 2.379-2.497 4.893-3.974 6.717-.742.916-1.437 1.602-2.023 2.016-.536.378-.787.395-.827.398h-.005l.003.002c-1.206-.303-2.519.105-3.583.706-1.114.628-2.199 1.597-3.025 2.795C.66 14.862.059 16.344.004 17.99c-.055 1.666.453 3.402 1.691 5.066.719.966 1.673 1.673 2.75 2.186L7.423 35h20.389l4.299-13.005c.709-.379 1.29-.82 1.744-1.325.772-.857 1.14-1.862 1.145-2.91.004-1.013-.331-1.978-.806-2.83-.942-1.688-2.592-3.219-4.274-4.318-1.265-.826-2.705-1.51-4.045-1.786C24.732 3.814 20.878.927 16.453.184zM28.756 23.15c-.883.19-1.86.335-2.93.44-.327.175-.723.346-1.146.508v5.213h-2.82v-4.318c-.859.232-1.81.458-2.82.662v3.657h-2.82v-3.176a37.855 37.855 0 0 1-2.82.291v2.884h-2.82V26.49a20.816 20.816 0 0 1-2.886-.268l1.812 5.935h16.273l2.977-9.005zM13.135 9.54c1.433-1.77 2.834-4.059 3.9-6.323 3.223.88 5.703 3.24 6.25 7.1l.172 1.221h1.223c.833 0 2.23.496 3.706 1.46 1.447.945 2.705 2.17 3.35 3.325.318.57.445 1.05.444 1.425-.002.34-.106.669-.414 1.01-.7.777-2.514 1.678-6.503 2.028l-.36.031-.3.202c-.115.078-.465.253-1.106.49a27.92 27.92 0 0 1-2.3.72 43.559 43.559 0 0 1-6.452 1.226c-2.354.259-4.699.292-6.667-.054-1.996-.351-3.382-1.05-4.126-2.052-.878-1.18-1.162-2.287-1.13-3.265.034-.998.402-1.96.983-2.801A6.549 6.549 0 0 1 5.78 13.41c.757 1.372 1.674 2.955 3.286 4.092 2.158 1.523 5.374 2.216 10.773 1.853l-.188-2.837c-5.177.348-7.6-.38-8.968-1.346-.862-.608-1.382-1.33-1.918-2.245.667-.146 1.278-.486 1.779-.84.881-.621 1.764-1.526 2.59-2.547z"/></symbol><symbol viewBox="0 0 41 43" id="ic7" xmlns="http://www.w3.org/2000/svg"><path d="M36 16.454v-1.227C36 14.55 35.488 14 34.857 14H5.143C4.512 14 4 14.55 4 15.227v1.227c0 7.023 3.95 13.069 9.586 15.73L8.8 39.035c-.38.543-.277 1.311.229 1.718.205.168.445.246.685.246.348 0 .69-.17.915-.49l5.222-7.48c1.326.383 2.711.606 4.149.606 1.438 0 2.823-.223 4.149-.606l5.222 7.48c.224.32.567.49.915.49.237 0 .477-.078.683-.245.505-.408.608-1.176.229-1.719l-4.787-6.853C32.051 29.523 36 23.477 36 16.454zM20 31.182c-7.563 0-13.714-6.605-13.714-14.727h27.428c0 8.122-6.15 14.727-13.714 14.727zm7.37-24.794c-.663-1.478-.248-2.14-.182-2.233.387-.46.415-1.23.058-1.735-.367-.517-.997-.562-1.408-.105-.072.078-1.706 1.958-.208 5.298.675 1.507.232 2.165.208 2.202-.413.46-.45 1.25-.084 1.765.197.277.47.42.746.42a.894.894 0 0 0 .662-.315c.072-.078 1.706-1.957.208-5.297zm-6 0c-.663-1.478-.248-2.143-.182-2.233.387-.46.415-1.23.058-1.735-.365-.517-.997-.562-1.408-.105-.072.078-1.706 1.958-.208 5.298.677 1.507.232 2.165.208 2.202-.413.46-.45 1.25-.084 1.765.197.277.47.42.746.42a.894.894 0 0 0 .662-.315c.072-.078 1.706-1.957.208-5.297zm-6 0c-.662-1.478-.248-2.143-.182-2.233.387-.46.415-1.23.058-1.735-.367-.517-.997-.562-1.408-.105-.072.078-1.706 1.958-.208 5.298.676 1.507.232 2.165.208 2.202-.413.46-.45 1.25-.084 1.765.197.277.47.42.746.42a.894.894 0 0 0 .662-.315c.072-.078 1.706-1.957.208-5.297z"/></symbol></svg>