<svg width="645" height="600" viewBox="0 0 645 600" fill="none" xmlns="http://www.w3.org/2000/svg">
<path fill-rule="evenodd" clip-rule="evenodd" d="M312.304 2C381.062 5.19911 463.586 28.0665 515.584 66.1392C562.911 100.791 598.531 176.916 620.675 226.362C643.593 277.533 650.484 335.351 633.709 388.189C616.267 443.122 582.715 514.168 530.223 549.865C475.824 586.858 382.056 601.049 312.304 597.462C244.412 593.971 178.144 573.699 124.237 538.718C71.9364 504.779 40.7859 447.134 16.5196 395.381C-8.66614 341.667 2.16802 281.028 24.285 226.362C46.1936 172.21 47.0957 101.272 100.646 66.1392C155.869 29.908 202.023 2.0001 312.304 2Z" fill="white" stroke="#EAEAEA" stroke-width="3.5" stroke-dasharray="25 25"/>
</svg>
